<?xml version="1.0" encoding="utf-8"?>
<svg fill="none" height="170" viewBox="0 0 191 170" width="191" xmlns="http://www.w3.org/2000/svg">
<circle cx="105.091" cy="85" fill="#DAE7EA" opacity="0.2" r="85"/>
<path d="M174.508 49.9612H0.000976562C9.08491 42.1203 21.8024 36.7656 33.5637 36.7656C43.317 36.7656 50.2973 40.3992 53.4527 46.0408C57.5644 43.2678 61.6761 41.6422 65.4053 41.6422C69.2301 41.6422 71.9075 43.3634 73.4374 46.3276C82.9038 33.132 101.072 23.1875 117.232 23.1875C134.252 23.1875 143.24 34.1838 138.937 48.4313C145.057 45.9451 151.464 44.5108 157.679 44.5108C164.85 44.6065 170.588 46.6145 174.508 49.9612Z" fill="white"/>
<path d="M99.004 58.7312C94.8495 57.0268 89.9493 58.1986 85.1556 61.3944C81.4272 54.1506 75.3553 49.783 69.4963 50.9548C61.6134 52.4462 57.0328 63.5249 59.3763 75.4558C59.909 78.1189 60.7612 80.6756 61.7199 82.9126C52.4522 89.6237 47.4454 98.0393 50.2151 104.005C52.026 108.053 57.0328 110.183 63.5309 110.396C64.3831 117.321 67.2593 122.54 72.0529 124.351C81.8533 128.293 95.8082 116.681 103.265 98.5719C110.722 80.4625 108.804 62.6727 99.004 58.7312Z" fill="#053588"/>
<path d="M79.1876 87.4922H76.5244V148.319H79.1876V87.4922Z" fill="#132528"/>
<path d="M77.165 115.936L87.1785 110.29C87.1785 110.396 83.3435 106.455 77.165 115.936Z" fill="#132528"/>
<path d="M78.4467 105.49L65.0244 98.2457C65.1309 98.3523 70.2442 92.4933 78.4467 105.49Z" fill="#132528"/>
<path d="M178.901 93.1513C177.622 89.636 172.403 88.2511 165.159 88.8903C166.224 84.0966 166.97 78.8769 167.502 73.3375C169.74 47.3452 163.987 25.5073 154.613 24.7617C147.795 24.1225 140.978 34.7751 136.823 50.5409C133.308 45.0016 129.686 42.0189 126.916 42.5515C120.738 43.8298 120.311 62.0458 125.957 83.1379C127.768 89.849 130.005 96.0275 132.349 101.354C123.933 107.106 119.033 113.498 120.525 117.865C122.549 123.511 134.906 123.724 149.074 118.611H149.18C150.671 118.078 152.269 117.439 153.867 116.8C169.953 110.089 181.138 99.4364 178.901 93.1513Z" fill="#053588"/>
<path d="M146.516 87.5H143.853V148.326H146.516V87.5Z" fill="#132528"/>
<path d="M145.665 111.903L135.438 109.453C135.438 109.453 140.339 104.234 145.665 111.903Z" fill="#132528"/>
<path d="M144.599 106.151L159.193 99.0138C159.299 99.0138 148.114 95.605 144.599 106.151Z" fill="#132528"/>
<path d="M146.409 148.325H54.4775C61.4017 140.548 71.5217 135.222 81.0025 135.222C85.7962 135.222 89.7377 136.607 92.7204 138.95C100.923 127.658 114.771 119.562 127.448 119.562C143.427 119.563 151.842 132.452 146.409 148.325Z" fill="#DAE7EA"/>
<path d="M167.395 148.325H131.282C135.969 143.957 142.361 141.188 149.392 141.188C156.316 141.294 162.601 143.957 167.395 148.325Z" fill="#DAE7EA"/>
<path d="M148.006 138.203H147.367C143.958 138.203 140.656 139.694 138.419 142.358H156.954C154.717 139.801 151.415 138.203 148.006 138.203Z" fill="#9BA5BE"/>
<path d="M104.972 133.305H104.759C103.374 133.305 102.095 134.37 101.243 136.287H108.487C107.635 134.37 106.356 133.305 104.972 133.305Z" fill="#9BA5BE"/>
<path d="M173.916 148.355H176.153V128.222H173.916V148.355Z" fill="#132528"/>
<path d="M86.3279 128.184H84.0908V148.317H86.3279V128.184Z" fill="#132528"/>
<path d="M176.129 132.871H84.0908V136.6H176.129V132.871Z" fill="white"/>
<path d="M95.382 132.871H88.7774L86.1143 136.6H92.7189L95.382 132.871Z" fill="#FF6A18"/>
<path d="M108.487 132.871H101.883L99.2197 136.6H105.824L108.487 132.871Z" fill="#FF6A18"/>
<path d="M121.589 132.871H114.984L112.321 136.6H118.926L121.589 132.871Z" fill="#FF6A18"/>
<path d="M134.691 132.871H128.086L125.423 136.6H132.027L134.691 132.871Z" fill="#FF6A18"/>
<path d="M147.792 132.871H141.081L138.524 136.6H145.129L147.792 132.871Z" fill="#FF6A18"/>
<path d="M160.898 132.871H154.187L151.63 136.6H158.235L160.898 132.871Z" fill="#FF6A18"/>
<path d="M173.999 132.871H167.288L164.731 136.6H171.336L173.999 132.871Z" fill="#FF6A18"/>
</svg>