<svg width="209" height="170" viewBox="0 0 209 170" fill="none" xmlns="http://www.w3.org/2000/svg">
<circle opacity="0.2" cx="106.638" cy="85" r="85" fill="#DAE7EA"/>
<path d="M61.4782 65.8806C57.749 64.3506 53.3505 65.4025 49.0475 68.2711C45.7008 61.7689 40.2505 57.8485 34.9914 58.9003C27.9155 60.239 23.8038 70.1835 25.9074 80.893C26.3855 83.2835 27.1505 85.5784 28.0111 87.5864C19.6921 93.6105 15.1979 101.164 17.6841 106.519C19.3096 110.153 23.8038 112.065 29.6366 112.256C30.4016 118.472 32.9833 123.157 37.2862 124.783C46.0833 128.321 58.6096 117.898 65.303 101.643C71.9964 85.3871 70.2753 69.4185 61.4782 65.8806Z" fill="#053588"/>
<path d="M43.6923 91.6992H41.3018V146.298H43.6923V91.6992Z" fill="#132528"/>
<path d="M41.876 117.225L50.8643 112.157C50.8643 112.253 47.422 108.715 41.876 117.225Z" fill="#132528"/>
<path d="M43.0257 107.853L30.9775 101.351C31.0732 101.446 35.6629 96.1872 43.0257 107.853Z" fill="#132528"/>
<path d="M206.786 148.034H86.5493C86.3948 142.007 98.4493 139.38 113.595 142.161C112.668 140.307 112.358 138.607 112.822 136.907C114.368 129.798 128.277 128.252 144.04 133.507C146.204 134.28 148.213 135.052 150.222 135.98C150.377 134.743 150.686 133.971 151.304 133.661C152.231 133.198 153.468 134.589 154.395 136.752C155.168 133.198 156.868 129.643 158.413 128.561C159.958 127.48 160.731 129.489 160.113 133.198C159.958 134.28 159.649 135.516 159.186 136.598C163.204 133.198 169.849 129.952 180.204 133.971C180.204 133.971 171.086 135.207 161.349 139.225C163.358 139.071 165.522 139.534 166.14 142.316L159.34 141.08C161.968 142.934 164.286 144.943 166.14 146.798C168.922 146.025 171.704 145.407 174.795 145.098C187.777 143.089 200.14 144.48 206.786 148.034Z" fill="#053588"/>
<path d="M152.728 30.41V46.1882L161.353 34.4072L156.304 23.0469L152.728 30.41Z" fill="#132528"/>
<path d="M177.555 6H148.733C145.157 6 142.001 8.94527 142.001 12.732V27.8791C142.001 31.4555 144.946 34.6111 148.733 34.6111H177.555C181.131 34.6111 184.287 31.6659 184.287 27.8791V12.732C184.287 9.15564 181.341 6 177.555 6Z" fill="#132528"/>
<path d="M176.292 22.6149C176.292 22.4045 176.292 21.9837 176.292 21.7734L177.344 20.7215L176.502 19.2488L175.03 19.6696C174.609 19.2488 174.188 19.0385 173.557 18.8281L173.136 17.3555H171.243L170.822 18.8281C170.191 19.0385 169.77 19.2488 169.35 19.6696L167.667 19.2488L166.825 20.7215L167.877 21.7734C167.877 21.9837 167.877 22.4045 167.877 22.6149C167.877 22.8252 167.877 23.246 167.877 23.4564L166.825 24.5083L167.667 25.9809L169.139 25.5601C169.56 25.9809 169.981 26.1913 170.612 26.4016L171.033 27.8743H172.926L173.347 26.4016C173.978 26.1913 174.399 25.9809 174.819 25.5601L176.292 25.9809L177.134 24.5083L176.082 23.6667C176.292 23.246 176.292 23.0356 176.292 22.6149ZM172.085 24.929C170.822 24.929 169.981 23.8771 169.981 22.8252C169.981 21.563 171.033 20.7215 172.085 20.7215C173.347 20.7215 174.188 21.7734 174.188 22.8252C174.188 23.8771 173.136 24.929 172.085 24.929Z" fill="white"/>
<path d="M163.462 20.3029L164.724 19.6718C164.724 19.0406 164.514 18.4095 164.514 17.9887H163.041C162.831 17.568 162.831 17.3576 162.62 16.9369L163.462 15.6746C163.041 15.2539 162.831 14.8331 162.41 14.4124L161.148 15.0435C160.937 14.8331 160.516 14.6227 160.096 14.4124L160.306 12.9397C159.885 12.7293 159.254 12.519 158.623 12.3086L157.782 13.5708C157.361 13.5708 157.15 13.5708 156.73 13.5708C156.73 13.5708 156.73 13.5708 156.519 13.5708L155.888 12.3086C155.257 12.3086 154.836 12.519 154.205 12.7293V14.202C153.784 14.4124 153.574 14.6227 153.153 14.8331L152.101 13.9916C151.681 14.4124 151.26 14.6227 150.839 15.0435L151.47 16.3057C151.26 16.5161 151.049 16.9369 150.839 17.3576L149.366 17.1472C149.156 17.7784 148.946 18.1991 148.735 18.8302L149.998 19.6718C149.998 19.8821 149.998 20.0925 149.998 20.5133V20.7236L148.735 21.1444C148.735 21.7755 148.946 22.4066 149.156 22.8274H150.629C150.839 23.0378 150.839 23.4585 151.049 23.6689L150.208 24.7208C150.629 25.1415 151.049 25.7727 151.47 25.983L152.732 25.3519C152.943 25.5623 153.153 25.7727 153.364 25.7727L153.153 27.2453C153.784 27.4557 154.205 27.666 154.836 27.8764L155.678 26.6142C155.888 26.6142 156.309 26.6142 156.519 26.6142L157.15 27.8764C157.782 27.8764 158.413 27.666 159.044 27.4557V25.983C159.254 25.7727 159.465 25.7727 159.885 25.5623L161.148 26.4038C161.568 25.983 162.199 25.5623 162.62 25.1415L161.989 23.8793C162.199 23.6689 162.41 23.4585 162.62 23.0378L164.093 23.2481C164.303 22.617 164.514 22.1963 164.724 21.5651L163.462 20.7236C163.462 21.1444 163.462 20.7236 163.462 20.3029ZM156.73 23.8793C154.836 23.8793 153.153 22.4066 153.153 20.3029C153.153 18.1991 154.626 16.7265 156.73 16.7265C158.623 16.7265 160.306 18.1991 160.306 20.3029C160.306 22.4066 158.623 23.8793 156.73 23.8793Z" fill="white"/>
<path d="M82.7987 148.548H24.5351C23.2987 144.838 22.8351 141.902 23.4533 140.82C24.3806 139.275 27.1624 142.057 30.2533 147.157C30.4078 143.138 31.1806 140.357 32.5715 139.738C33.6533 139.275 35.1987 140.202 36.5897 142.366C38.1351 135.72 40.4533 130.929 42.4624 130.466C43.2351 130.311 44.0078 130.929 44.4715 131.857C48.7987 124.748 53.5897 120.111 56.8351 120.575C61.3169 121.193 61.4715 130.466 57.4533 141.748C60.6987 138.502 63.326 136.802 64.4078 137.266C65.026 137.575 65.026 138.657 64.5624 140.357C71.6715 134.329 75.226 132.938 72.7533 137.42C71.5169 139.584 69.0442 142.675 65.9533 145.92C71.826 143.138 75.3806 142.675 74.9169 145.148C80.0169 143.293 83.726 142.984 84.3442 144.684C84.6533 145.611 84.0351 147.002 82.7987 148.548Z" fill="#053588"/>
<path d="M106.946 32.1503C106.483 33.2321 105.865 34.4684 105.092 35.5503H0.000976562C4.79189 32.923 10.3555 31.223 15.6101 31.223C19.1646 31.223 22.101 31.9957 24.4192 33.3866C29.8282 26.8957 38.1737 22.2594 45.4373 22.2594C50.3828 22.2594 53.7828 24.423 55.3283 27.823C57.6464 27.0503 60.1192 26.5866 62.2828 26.5866C68.001 26.5866 71.7101 29.3684 72.6373 33.6957C73.7192 33.5412 74.801 33.3866 75.8828 33.3866C77.2737 33.3866 78.5101 33.5412 79.7464 33.8503C79.901 33.3866 80.2101 32.923 80.3646 32.3048C84.6919 23.0321 94.1192 15.4594 101.383 15.4594C108.956 15.3048 111.274 22.8775 106.946 32.1503Z" fill="white"/>
<path d="M113.894 142.967C114.349 142.76 114.349 142.76 114.349 142.76L114.349 142.76L114.348 142.758L114.345 142.752L114.334 142.727L114.289 142.628C114.25 142.541 114.192 142.413 114.118 142.249C113.971 141.919 113.759 141.444 113.503 140.86C112.99 139.692 112.297 138.09 111.58 136.356C110.137 132.865 108.622 128.903 108.232 126.824L108.229 126.81L108.226 126.795C107.709 124.729 107.714 122.678 108.222 120.901L108.266 120.745L108.211 120.593C107.682 119.14 106.55 115.544 105.516 111.64C104.478 107.726 103.556 103.559 103.425 100.943L103.425 100.943L103.425 100.937C103.298 98.9145 103.865 97.3118 104.936 96.1187C106.009 94.923 107.627 94.0959 109.677 93.7067C113.208 93.4663 116.123 95.4784 116.609 98.6357C116.609 98.6359 116.609 98.636 116.609 98.6362L119.814 119.731V119.731V119.733V119.734V119.736V119.737V119.739V119.741V119.742V119.744V119.745V119.747V119.748V119.75V119.752V119.753V119.755V119.756V119.758V119.759V119.761V119.763V119.764V119.766V119.767V119.769V119.77V119.772V119.773V119.775V119.777V119.778V119.78V119.781V119.783V119.784V119.786V119.788V119.789V119.791V119.792V119.794V119.795V119.797V119.799V119.8V119.802V119.803V119.805V119.806V119.808V119.81V119.811V119.813V119.814V119.816V119.817V119.819V119.821V119.822V119.824V119.825V119.827V119.828V119.83V119.831V119.833V119.835V119.836V119.838V119.839V119.841V119.842V119.844V119.846V119.847V119.849V119.85V119.852V119.853V119.855V119.857V119.858V119.86V119.861V119.863V119.864V119.866V119.868V119.869V119.871V119.872V119.874V119.875V119.877V119.879V119.88V119.882V119.883V119.885V119.886V119.888V119.889V119.891V119.893V119.894V119.896V119.897V119.899V119.9V119.902V119.904V119.905V119.907V119.908V119.91V119.911V119.913V119.915V119.916V119.918V119.919V119.921V119.922V119.924V119.926V119.927V119.929V119.93V119.932V119.933V119.935V119.937V119.938V119.94V119.941V119.943V119.944V119.946V119.947V119.949V119.951V119.952V119.954V119.955V119.957V119.958V119.96V119.962V119.963V119.965V119.966V119.968V119.969V119.971V119.973V119.974V119.976V119.977V119.979V119.98V119.982V119.984V119.985V119.987V119.988V119.99V119.991V119.993V119.995V119.996V119.998V119.999V120.001V120.002V120.004V120.005V120.007V120.009V120.01V120.012V120.013V120.015V120.016V120.018V120.02V120.021V120.023V120.024V120.026V120.027V120.029V120.031V120.032V120.034V120.035V120.037V120.038V120.04V120.042V120.043V120.045V120.046V120.048V120.049V120.051V120.052V120.054V120.056V120.057V120.059V120.06V120.062V120.063V120.065V120.067V120.068V120.07V120.071V120.073V120.074V120.076V120.078V120.079V120.081V120.082V120.084V120.085V120.087V120.089V120.09V120.092V120.093V120.095V120.096V120.098V120.1V120.101V120.103V120.104V120.106V120.107V120.109V120.11V120.112V120.114V120.115V120.117V120.118V120.12V120.121V120.123V120.125V120.126V120.128V120.129V120.131V120.132V120.134V120.136V120.137V120.139V120.14V120.142V120.143V120.145V120.147V120.148V120.15V120.151V120.153V120.154V120.156V120.158V120.159V120.161V120.162V120.164V120.165V120.167V120.168V120.17V120.172V120.173V120.175V120.176V120.178V120.179V120.181V120.183V120.184V120.186V120.187V120.189V120.19V120.192V120.194V120.195V120.197V120.198V120.2V120.201V120.203V120.205V120.206V120.208V120.209V120.211V120.212V120.214V120.216V120.217V120.219V120.22V120.222V120.223V120.225V120.226V120.228V120.23V120.231V120.233V120.234V120.236V120.237V120.239V120.241V120.242V120.244V120.245V120.247V120.248V120.25V120.252V120.253V120.255V120.256V120.258V120.259V120.261V120.263V120.264V120.266V120.267V120.269V120.27V120.272V120.274V120.275V120.277V120.278V120.28V120.281V120.283V120.284V120.286V120.288V120.289V120.291V120.292V120.294V120.295V120.297V120.299V120.3V120.302V120.303V120.305V120.306V120.308V120.31V120.311V120.313V120.314V120.316V120.317V120.319V120.321V120.322V120.324V120.325V120.327V120.328V120.33V120.331V120.333V120.335V120.336V120.338V120.339V120.341V120.342V120.344V120.346V120.347V120.349V120.35V120.352V120.353V120.355V120.357V120.358V120.36V120.361V120.363V120.364V120.366V120.368V120.369V120.371V120.372V120.374V120.375V120.377V120.379V120.38V120.382V120.383V120.385V120.386V120.388V120.389V120.391V120.393V120.394V120.396V120.397V120.399V120.4V120.402V120.404V120.405V120.407V120.408V120.41V120.411V120.413V120.415V120.416V120.418V120.419V120.421V120.422V120.424V120.426V120.427V120.429V120.43V120.432V120.433V120.435V120.437V120.438V120.44V120.441V120.443V120.444V120.446V120.447V120.449V120.451V120.452V120.454V120.455V120.457V120.458V120.46V120.462V120.463V120.465V120.466V120.468V120.469V120.471V120.473V120.474V120.476V120.477V120.479V120.48V120.482V120.484V120.485V120.487V120.488V120.49V120.491V120.493V120.495V120.496V120.526L119.817 120.556L122.224 140.607C122.353 142.434 122.148 143.727 121.709 144.576C121.286 145.394 120.63 145.834 119.717 145.949L119.693 145.951L119.67 145.957C117.535 146.431 115.35 145.262 114.358 142.781L114.354 142.771L114.349 142.76L113.894 142.967Z" fill="white" stroke="#132528"/>
<path d="M126.2 58.7007C124.862 57.3631 123.257 56.8281 121.385 56.8281H107.207H93.0286C89.2834 56.8281 86.3408 59.7707 86.3408 63.5159C86.3408 65.3885 87.1433 66.9935 88.2134 68.3311C89.5509 69.6686 91.156 70.2037 93.0286 70.2037H120.047H121.385C125.13 70.2037 128.072 67.2611 128.072 63.5159C128.072 61.6433 127.27 60.0383 126.2 58.7007Z" fill="#132528"/>
<path d="M127.002 60.038C124.862 57.898 121.384 57.6304 118.977 59.7705C116.836 61.9106 116.569 65.3883 118.709 67.7959L131.55 81.1714C133.69 83.3115 137.167 83.579 139.575 81.4389C141.715 79.2988 141.982 75.8212 139.842 73.4136L127.002 60.038Z" fill="#132528"/>
<path d="M127.535 70.4682C128.872 67.793 127.535 64.3154 124.86 62.9779C122.185 61.6403 118.707 62.9779 117.369 65.653L109.612 82.5061C108.274 85.1812 109.612 88.6589 112.287 89.9964C114.962 91.334 118.44 89.9964 119.777 87.3213L127.535 70.4682Z" fill="#132528"/>
<path d="M138.235 62.9864C140.911 65.6615 140.643 69.9417 137.968 72.3493C135.293 75.0244 131.013 74.7569 128.605 72.0818C125.93 69.4067 126.198 65.1265 128.873 62.7189C131.548 60.3113 135.56 60.3113 138.235 62.9864Z" fill="#DAE7EA"/>
<path d="M91.6887 56.2969C87.9436 56.2969 85.001 59.2395 85.001 62.9846C85.001 66.7298 87.9436 69.6724 91.6887 69.6724C95.4339 69.6724 98.3765 66.7298 98.3765 62.9846C98.3765 59.2395 95.4339 56.2969 91.6887 56.2969Z" fill="#132528"/>
<path d="M122.185 56.2969C118.44 56.2969 115.497 59.2395 115.497 62.9846C115.497 66.7298 118.44 69.6724 122.185 69.6724C125.93 69.6724 128.873 66.7298 128.873 62.9846C128.873 59.2395 125.93 56.2969 122.185 56.2969Z" fill="#132528"/>
<path d="M116.301 62.9793C120.313 62.7118 123.791 65.3869 124.058 69.3996L126.199 91.603C126.466 95.3482 124.058 99.0933 120.313 99.6283C116.301 100.431 112.288 97.4883 112.02 93.2081L109.88 70.7372C109.345 66.7245 112.288 63.2468 116.301 62.9793Z" fill="#132528"/>
<path d="M102.658 39.4414C100.786 39.4414 99.7158 40.779 99.7158 42.384C99.7158 43.9891 101.053 45.3266 102.658 45.3266H102.926C104.531 45.3266 105.869 43.9891 105.869 42.384C105.334 40.779 104.264 39.4414 102.658 39.4414Z" fill="#132528"/>
<path d="M97.5762 84.3908L86.3408 67.2701L97.8438 61.6523L97.5762 84.3908Z" fill="#132528"/>
<mask id="path-23-inside-1_4037_145719" fill="white">
<path fill-rule="evenodd" clip-rule="evenodd" d="M117.104 96.9625V96.9623C117.104 89.7395 111.219 83.8543 104.263 84.3893C101.053 84.3893 98.1106 85.7269 95.9705 87.5994C95.9705 87.7648 95.8683 87.8279 95.7271 87.9152C95.6399 87.9691 95.5377 88.0323 95.4355 88.1344L94.633 88.937L94.6329 88.937C94.0979 89.472 93.5629 90.007 93.2954 90.542C92.2254 92.6821 91.4229 95.0897 91.4229 97.4973C91.4229 98.2861 91.4951 99.061 91.6337 99.8152C90.0723 105.25 89.5498 116.782 89.5498 119.955C88.4798 121.56 87.6773 123.7 87.4098 125.84C86.6072 130.12 87.9448 142.961 87.9448 142.961C87.9448 145.903 89.8173 147.776 92.2249 148.311C94.6325 148.578 96.2376 147.776 97.0401 145.368L97.3076 145.636L97.5751 144.566C97.5751 144.298 97.5751 144.031 97.8426 143.763L102.39 123.967C102.39 123.7 102.39 123.432 102.658 123.432L105.183 110.301C110.159 109.902 114.537 106.315 116.301 101.777C116.435 101.376 116.502 101.042 116.569 100.707C116.636 100.373 116.703 100.039 116.836 99.6374V99.3699C117.104 98.5674 117.104 97.765 117.104 96.9625Z"/>
</mask>
<path fill-rule="evenodd" clip-rule="evenodd" d="M117.104 96.9625V96.9623C117.104 89.7395 111.219 83.8543 104.263 84.3893C101.053 84.3893 98.1106 85.7269 95.9705 87.5994C95.9705 87.7648 95.8683 87.8279 95.7271 87.9152C95.6399 87.9691 95.5377 88.0323 95.4355 88.1344L94.633 88.937L94.6329 88.937C94.0979 89.472 93.5629 90.007 93.2954 90.542C92.2254 92.6821 91.4229 95.0897 91.4229 97.4973C91.4229 98.2861 91.4951 99.061 91.6337 99.8152C90.0723 105.25 89.5498 116.782 89.5498 119.955C88.4798 121.56 87.6773 123.7 87.4098 125.84C86.6072 130.12 87.9448 142.961 87.9448 142.961C87.9448 145.903 89.8173 147.776 92.2249 148.311C94.6325 148.578 96.2376 147.776 97.0401 145.368L97.3076 145.636L97.5751 144.566C97.5751 144.298 97.5751 144.031 97.8426 143.763L102.39 123.967C102.39 123.7 102.39 123.432 102.658 123.432L105.183 110.301C110.159 109.902 114.537 106.315 116.301 101.777C116.435 101.376 116.502 101.042 116.569 100.707C116.636 100.373 116.703 100.039 116.836 99.6374V99.3699C117.104 98.5674 117.104 97.765 117.104 96.9625Z" fill="white"/>
<path d="M104.263 84.3893V85.3893H104.302L104.34 85.3863L104.263 84.3893ZM95.9705 87.5994L95.312 86.8468L94.9705 87.1457V87.5994H95.9705ZM95.7271 87.9152L96.2529 88.7658L96.2529 88.7658L95.7271 87.9152ZM95.4355 88.1344L94.7284 87.4273L94.7284 87.4273L95.4355 88.1344ZM94.633 88.937L95.3401 89.6441L94.633 88.937ZM94.6329 88.937L95.3401 89.6441V89.6441L94.6329 88.937ZM93.2954 90.542L94.1898 90.9893V90.9893L93.2954 90.542ZM91.6337 99.8152L92.5948 100.091L92.6597 99.8655L92.6173 99.6344L91.6337 99.8152ZM89.5498 119.955L90.3819 120.509L90.5498 120.258V119.955H89.5498ZM87.4098 125.84L88.3926 126.024L88.3982 125.994L88.402 125.964L87.4098 125.84ZM87.9448 142.961H88.9448V142.909L88.9394 142.857L87.9448 142.961ZM92.2249 148.311L92.008 149.287L92.0607 149.299L92.1145 149.305L92.2249 148.311ZM97.0401 145.368L97.7472 144.661L96.6031 143.517L96.0914 145.052L97.0401 145.368ZM97.3076 145.636L96.6005 146.343L97.8495 147.592L98.2778 145.878L97.3076 145.636ZM97.5751 144.566L98.5453 144.808L98.5751 144.689V144.566H97.5751ZM97.8426 143.763L98.5497 144.47L98.7529 144.267L98.8173 143.987L97.8426 143.763ZM102.39 123.967L103.365 124.191L103.39 124.081V123.967H102.39ZM102.658 123.432V124.432H103.484L103.64 123.621L102.658 123.432ZM105.183 110.301L105.103 109.304L104.345 109.365L104.201 110.112L105.183 110.301ZM116.301 101.777L117.233 102.14L117.242 102.117L117.25 102.094L116.301 101.777ZM116.569 100.707L117.549 100.904V100.904L116.569 100.707ZM116.836 99.6374L117.785 99.9536L117.836 99.7997V99.6374H116.836ZM116.836 99.3699L115.888 99.0537L115.836 99.2076V99.3699H116.836ZM118.104 96.9625V96.9623H116.104V96.9625H118.104ZM118.104 96.9623C118.104 89.2191 111.783 82.8079 104.187 83.3922L104.34 85.3863C110.654 84.9006 116.104 90.2599 116.104 96.9623H118.104ZM104.263 83.3893C100.776 83.3893 97.6065 84.8392 95.312 86.8468L96.629 88.352C98.6147 86.6145 101.33 85.3893 104.263 85.3893V83.3893ZM94.9705 87.5994C94.9705 87.5354 94.9809 87.446 95.0194 87.3461C95.0584 87.2452 95.1131 87.1673 95.1629 87.1127C95.2081 87.0632 95.2453 87.0373 95.2481 87.0353C95.2483 87.0351 95.2429 87.0389 95.2014 87.0645L96.2529 88.7658C96.2885 88.7438 96.484 88.6321 96.6406 88.4604C96.8531 88.2274 96.9705 87.9295 96.9705 87.5994H94.9705ZM95.2014 87.0645C95.1134 87.1189 94.9211 87.2347 94.7284 87.4273L96.1426 88.8415C96.1543 88.8299 96.1664 88.8193 96.2529 88.7658L95.2014 87.0645ZM94.7284 87.4273L93.9259 88.2299L95.3401 89.6441L96.1426 88.8415L94.7284 87.4273ZM93.9259 88.2299L93.9258 88.2299L95.3401 89.6441L95.3401 89.6441L93.9259 88.2299ZM93.9258 88.2299C93.4309 88.7248 92.7569 89.383 92.401 90.0948L94.1898 90.9893C94.3689 90.6311 94.7649 90.2192 95.3401 89.6441L93.9258 88.2299ZM92.401 90.0948C91.2928 92.3112 90.4229 94.8771 90.4229 97.4973H92.4229C92.4229 95.3023 93.158 93.053 94.1898 90.9893L92.401 90.0948ZM90.4229 97.4973C90.4229 98.3472 90.5007 99.1827 90.6502 99.996L92.6173 99.6344C92.4895 98.9394 92.4229 98.2249 92.4229 97.4973H90.4229ZM90.6726 99.5391C89.8619 102.361 89.3355 106.691 89.0096 110.651C88.6821 114.631 88.5498 118.336 88.5498 119.955H90.5498C90.5498 118.402 90.6788 114.753 91.0029 110.815C91.3286 106.858 91.8442 102.704 92.5948 100.091L90.6726 99.5391ZM88.7178 119.4C87.558 121.14 86.7034 123.428 86.4175 125.716L88.402 125.964C88.6511 123.971 89.4015 121.98 90.3819 120.509L88.7178 119.4ZM86.4269 125.656C86.2071 126.828 86.1422 128.516 86.1548 130.328C86.1675 132.159 86.2606 134.186 86.3783 136.068C86.496 137.952 86.6389 139.699 86.7522 140.976C86.8089 141.614 86.8583 142.136 86.8936 142.498C86.9112 142.678 86.9253 142.82 86.935 142.916C86.9399 142.964 86.9436 143.001 86.9462 143.026C86.9475 143.038 86.9484 143.048 86.9491 143.054C86.9494 143.057 86.9497 143.06 86.9499 143.062C86.95 143.062 86.95 143.063 86.9501 143.064C86.9501 143.064 86.9501 143.064 86.9501 143.064C86.9501 143.064 86.9501 143.064 87.9448 142.961C88.9394 142.857 88.9394 142.857 88.9394 142.857C88.9394 142.857 88.9394 142.857 88.9393 142.857C88.9393 142.856 88.9393 142.856 88.9392 142.855C88.939 142.854 88.9388 142.851 88.9385 142.849C88.9379 142.843 88.937 142.834 88.9357 142.822C88.9333 142.798 88.9296 142.762 88.9249 142.715C88.9154 142.621 88.9015 142.482 88.8842 142.304C88.8494 141.947 88.8005 141.431 88.7444 140.799C88.6321 139.534 88.4907 137.804 88.3744 135.943C88.2579 134.08 88.1671 132.094 88.1548 130.314C88.1423 128.514 88.2111 126.992 88.3926 126.024L86.4269 125.656ZM86.9448 142.961C86.9448 146.422 89.193 148.662 92.008 149.287L92.4418 147.335C90.4417 146.89 88.9448 145.385 88.9448 142.961H86.9448ZM92.1145 149.305C93.4407 149.452 94.6843 149.321 95.7383 148.707C96.8066 148.083 97.534 147.049 97.9888 145.685L96.0914 145.052C95.7437 146.095 95.2673 146.666 94.7305 146.979C94.1794 147.3 93.4167 147.437 92.3353 147.317L92.1145 149.305ZM96.333 146.075L96.6005 146.343L98.0147 144.929L97.7472 144.661L96.333 146.075ZM98.2778 145.878L98.5453 144.808L96.605 144.323L96.3375 145.393L98.2778 145.878ZM98.5751 144.566C98.5751 144.531 98.5751 144.505 98.5755 144.481C98.5759 144.458 98.5765 144.441 98.5773 144.428C98.579 144.401 98.5809 144.398 98.5787 144.407C98.5759 144.418 98.5697 144.436 98.5595 144.454C98.5495 144.472 98.5429 144.477 98.5497 144.47L97.1355 143.056C96.5571 143.635 96.5751 144.283 96.5751 144.566H98.5751ZM98.8173 143.987L103.365 124.191L101.416 123.744L96.868 143.539L98.8173 143.987ZM103.39 123.967C103.39 123.893 103.391 123.861 103.392 123.838C103.394 123.812 103.395 123.85 103.372 123.916C103.348 123.988 103.282 124.14 103.117 124.268C102.944 124.403 102.764 124.432 102.658 124.432V122.432C102.418 122.432 102.138 122.496 101.889 122.689C101.649 122.876 101.533 123.111 101.475 123.283C101.379 123.571 101.39 123.89 101.39 123.967H103.39ZM103.64 123.621L106.165 110.49L104.201 110.112L101.676 123.244L103.64 123.621ZM105.263 111.298C110.657 110.866 115.343 107 117.233 102.14L115.369 101.415C113.73 105.63 109.661 108.939 105.103 109.304L105.263 111.298ZM117.25 102.094C117.406 101.627 117.483 101.238 117.549 100.904L115.588 100.511C115.521 100.846 115.465 101.125 115.353 101.461L117.25 102.094ZM117.549 100.904C117.616 100.569 117.673 100.29 117.785 99.9536L115.888 99.3212C115.732 99.7877 115.655 100.177 115.588 100.511L117.549 100.904ZM117.836 99.6374V99.3699H115.836V99.6374H117.836ZM117.785 99.6861C118.112 98.706 118.104 97.7424 118.104 96.9625H116.104C116.104 97.7875 116.096 98.4288 115.888 99.0537L117.785 99.6861Z" fill="#132528" mask="url(#path-23-inside-1_4037_145719)"/>
<path d="M96.7345 89.4618V89.4198L96.7275 89.3783L93.7849 71.9901L93.7837 71.9828L93.7822 71.9755C93.2721 69.4248 93.7844 66.6184 95.0466 64.5917C96.8405 62.0353 99.6587 60.241 102.998 59.7272C106.355 59.2109 109.701 59.9874 112.266 61.7827C114.844 63.5873 116.895 66.4142 117.408 70.0042L117.408 70.0042L117.409 70.0145L120.346 87.8975C120.346 88.1467 120.347 88.4348 120.384 88.6965C120.41 88.8784 120.458 89.089 120.564 89.2833C120.352 90.056 120.346 90.8167 120.346 91.5104C118.784 95.5969 115.457 98.6362 110.865 99.4015C104.726 100.425 98.8265 96.6046 97.0005 90.7191C96.9884 90.4092 96.9083 90.1693 96.847 89.9854L96.8426 89.9724C96.7758 89.772 96.7345 89.6401 96.7345 89.4618Z" fill="white" stroke="#132528"/>
<path d="M105.334 59.7656H100.251V62.9757H105.334V59.7656Z" fill="#132528"/>
<path d="M116.568 61.9124H113.09C111.217 61.9124 109.88 60.5749 109.88 58.7023C109.88 56.8297 111.217 55.4922 113.09 55.4922H116.568C118.44 55.4922 119.778 56.8297 119.778 58.7023C119.778 60.5749 118.173 61.9124 116.568 61.9124Z" fill="white"/>
<path d="M102.924 44.2578C101.854 44.2578 101.052 45.0604 101.052 46.1304V47.4679C101.052 48.538 101.854 49.3405 102.924 49.3405C103.994 49.3405 104.797 48.538 104.797 47.4679V46.1304C104.797 45.0604 103.994 44.2578 102.924 44.2578Z" fill="#132528"/>
<mask id="path-29-inside-2_4037_145719" fill="white">
<path fill-rule="evenodd" clip-rule="evenodd" d="M102.927 46.6602V54.406C102.376 54.6357 101.92 55.0101 101.596 55.4922H100.25C98.3776 55.4922 97.04 56.8297 97.04 58.7023C97.04 60.5749 98.3776 61.9124 100.25 61.9124H101.097C101.503 65.8135 104.806 68.8616 108.813 68.8616C113.094 68.8616 116.571 65.3839 116.571 61.1037V57.3586C116.762 56.0227 116 54.9592 114.965 54.4592V46.6602H102.927Z"/>
</mask>
<path fill-rule="evenodd" clip-rule="evenodd" d="M102.927 46.6602V54.406C102.376 54.6357 101.92 55.0101 101.596 55.4922H100.25C98.3776 55.4922 97.04 56.8297 97.04 58.7023C97.04 60.5749 98.3776 61.9124 100.25 61.9124H101.097C101.503 65.8135 104.806 68.8616 108.813 68.8616C113.094 68.8616 116.571 65.3839 116.571 61.1037V57.3586C116.762 56.0227 116 54.9592 114.965 54.4592V46.6602H102.927Z" fill="white"/>
<path d="M102.927 54.406L103.311 55.329L103.927 55.0726V54.406H102.927ZM102.927 46.6602V45.6602H101.927V46.6602H102.927ZM101.596 55.4922V56.4922H102.129L102.426 56.0496L101.596 55.4922ZM101.097 61.9124L102.092 61.8091L101.999 60.9124H101.097V61.9124ZM116.571 57.3586L115.581 57.2171L115.571 57.2875V57.3586H116.571ZM114.965 54.4592H113.965V55.0868L114.53 55.3597L114.965 54.4592ZM114.965 46.6602H115.965V45.6602H114.965V46.6602ZM103.927 54.406V46.6602H101.927V54.406H103.927ZM102.426 56.0496C102.639 55.7326 102.939 55.4843 103.311 55.329L102.542 53.483C101.812 53.7872 101.2 54.2875 100.766 54.9347L102.426 56.0496ZM100.25 56.4922H101.596V54.4922H100.25V56.4922ZM98.04 58.7023C98.04 57.382 98.9299 56.4922 100.25 56.4922V54.4922C97.8253 54.4922 96.04 56.2775 96.04 58.7023H98.04ZM100.25 60.9124C98.9299 60.9124 98.04 60.0226 98.04 58.7023H96.04C96.04 61.1272 97.8253 62.9124 100.25 62.9124V60.9124ZM101.097 60.9124H100.25V62.9124H101.097V60.9124ZM108.813 67.8616C105.324 67.8616 102.445 65.2062 102.092 61.8091L100.103 62.0157C100.56 66.4207 104.288 69.8616 108.813 69.8616V67.8616ZM115.571 61.1037C115.571 64.8316 112.541 67.8616 108.813 67.8616V69.8616C113.646 69.8616 117.571 65.9362 117.571 61.1037H115.571ZM115.571 57.3586V61.1037H117.571V57.3586H115.571ZM114.53 55.3597C115.249 55.7068 115.699 56.3902 115.581 57.2171L117.561 57.5C117.825 55.6553 116.751 54.2116 115.4 53.5588L114.53 55.3597ZM113.965 46.6602V54.4592H115.965V46.6602H113.965ZM102.927 47.6602H114.965V45.6602H102.927V47.6602Z" fill="#132528" mask="url(#path-29-inside-2_4037_145719)"/>
<path d="M132.884 70.7384C132.617 68.8658 130.744 67.5283 128.872 67.7958L108.006 69.6684C105.331 69.9359 103.458 73.146 103.726 75.5536C104.261 78.2287 107.471 80.1013 110.146 79.5663L129.942 74.7511C132.082 74.4836 133.419 72.611 132.884 70.7384Z" fill="#132528"/>
<path d="M123.789 55.4907C122.184 56.5607 121.649 58.7008 122.452 60.3059L132.617 79.0316C133.955 81.4392 136.897 82.2418 139.037 80.9042C141.178 79.5667 141.98 76.6241 140.375 74.484L128.604 56.8282C127.534 54.9557 125.394 54.4206 123.789 55.4907Z" fill="#132528"/>
<path d="M127.538 65.3909C129.411 65.1234 130.748 63.5183 130.481 61.9133L130.213 58.1681C129.946 56.2955 128.341 54.958 126.736 55.2255C124.863 55.493 123.525 57.0981 123.793 58.7031L124.06 62.4483C124.328 64.0533 125.933 65.3909 127.538 65.3909Z" fill="#132528"/>
<path d="M125.129 56.0222C122.989 55.7547 120.849 57.0922 120.582 59.2323C120.314 61.3724 121.652 63.5125 123.792 63.78C125.932 64.0475 128.072 62.7099 128.34 60.5699C128.607 58.4298 127.27 56.5572 125.129 56.0222Z" fill="white"/>
<mask id="path-35-inside-3_4037_145719" fill="white">
<path fill-rule="evenodd" clip-rule="evenodd" d="M102.923 41.0446C102.923 35.9619 106.936 31.9492 112.018 31.9492C117.101 31.9492 121.381 35.9619 121.114 41.0446V46.9298V46.9301C121.114 48 121.114 48.8025 120.846 49.6049C120.311 50.9425 119.509 52.2801 118.438 53.3501C116.833 54.9552 114.426 56.0252 112.018 56.0252C109.611 56.0252 107.471 55.2227 105.865 53.6176C104.247 52.2303 103.228 50.2433 102.981 48.0023H102.924C101.587 47.7348 100.517 46.6647 100.517 45.3272V44.2571C100.517 42.7598 101.681 41.7281 102.923 41.5963V41.0446Z"/>
</mask>
<path fill-rule="evenodd" clip-rule="evenodd" d="M102.923 41.0446C102.923 35.9619 106.936 31.9492 112.018 31.9492C117.101 31.9492 121.381 35.9619 121.114 41.0446V46.9298V46.9301C121.114 48 121.114 48.8025 120.846 49.6049C120.311 50.9425 119.509 52.2801 118.438 53.3501C116.833 54.9552 114.426 56.0252 112.018 56.0252C109.611 56.0252 107.471 55.2227 105.865 53.6176C104.247 52.2303 103.228 50.2433 102.981 48.0023H102.924C101.587 47.7348 100.517 46.6647 100.517 45.3272V44.2571C100.517 42.7598 101.681 41.7281 102.923 41.5963V41.0446Z" fill="white"/>
<path d="M121.114 41.0446L120.115 40.992L120.114 41.0183V41.0446H121.114ZM120.846 49.6049L121.775 49.9763L121.785 49.9491L121.795 49.9212L120.846 49.6049ZM118.438 53.3501L117.731 52.643L118.438 53.3501ZM105.865 53.6176L106.573 52.9105L106.545 52.8834L106.516 52.8584L105.865 53.6176ZM102.981 48.0023L103.975 47.8929L103.877 47.0023H102.981V48.0023ZM102.924 48.0023L102.728 48.9829L102.825 49.0023H102.924V48.0023ZM102.923 41.5963L103.028 42.5907L103.923 42.4959V41.5963H102.923ZM112.018 30.9492C106.383 30.9492 101.923 35.4096 101.923 41.0446H103.923C103.923 36.5142 107.488 32.9492 112.018 32.9492V30.9492ZM122.112 41.0972C122.413 35.3731 117.602 30.9492 112.018 30.9492V32.9492C116.6 32.9492 120.349 36.5506 120.115 40.992L122.112 41.0972ZM122.114 46.9298V41.0446H120.114V46.9298H122.114ZM122.114 46.9301V46.9298H120.114V46.9301H122.114ZM121.795 49.9212C122.123 48.937 122.114 47.9646 122.114 46.9301H120.114C120.114 48.0354 120.104 48.668 119.897 49.2887L121.795 49.9212ZM119.146 54.0572C120.329 52.8734 121.2 51.4136 121.775 49.9763L119.918 49.2336C119.422 50.4714 118.688 51.6867 117.731 52.643L119.146 54.0572ZM112.018 57.0252C114.703 57.0252 117.362 55.841 119.146 54.0572L117.731 52.643C116.305 54.0693 114.148 55.0252 112.018 55.0252V57.0252ZM105.158 54.3247C106.974 56.1405 109.38 57.0252 112.018 57.0252V55.0252C109.841 55.0252 107.967 54.3049 106.573 52.9105L105.158 54.3247ZM101.987 48.1117C102.26 50.5883 103.391 52.8137 105.215 54.3769L106.516 52.8584C105.103 51.6468 104.196 49.8983 103.975 47.8929L101.987 48.1117ZM102.924 49.0023H102.981V47.0023H102.924V49.0023ZM99.5166 45.3272C99.5166 47.2437 101.031 48.6435 102.728 48.9829L103.12 47.0217C102.142 46.8261 101.517 46.0858 101.517 45.3272H99.5166ZM99.5166 44.2571V45.3272H101.517V44.2571H99.5166ZM102.817 40.6019C101.132 40.7806 99.5166 42.1851 99.5166 44.2571H101.517C101.517 43.3345 102.229 42.6755 103.028 42.5907L102.817 40.6019ZM101.923 41.0446V41.5963H103.923V41.0446H101.923Z" fill="#132528" mask="url(#path-35-inside-3_4037_145719)"/>
<path d="M121.116 42.1086H117.638C116.568 42.1086 115.498 41.8411 114.696 41.0385L112.556 38.8984H124.326C124.326 40.771 122.721 42.1086 121.116 42.1086Z" fill="#132528"/>
<path d="M107.739 72.3533L105.599 94.8242C105.332 96.4293 104.797 97.7668 103.727 98.8369C102.924 99.6394 102.122 100.174 101.052 100.709C99.9816 101.244 98.9115 101.244 97.5739 101.244C93.5613 100.977 90.6187 97.2318 91.1537 93.4867L92.7588 78.5061L93.2938 72.6208L94.0963 64.5955V64.328V63.793L101.319 64.5955C105.332 65.1305 108.007 68.6082 107.739 72.3533Z" fill="#132528"/>
<path d="M96.7693 62.1758H91.9541V73.4112H96.7693V62.1758Z" fill="#132528"/>
<path d="M108.542 67.5243L102.122 57.3588C101.319 56.0213 99.7143 55.2188 98.1092 55.2188C95.4341 55.2188 93.2939 57.3588 93.2939 60.034V60.8365C93.2939 62.7091 94.364 64.3141 95.9691 65.1167L106.402 70.1994C107.74 70.7344 109.077 69.9318 109.077 68.5943C108.81 68.3268 108.81 67.7918 108.542 67.5243Z" fill="#132528"/>
<path d="M125.13 52.8106C127.805 55.4857 127.538 59.7659 124.863 62.1735C122.187 64.8486 117.907 64.5811 115.5 61.906C112.825 59.2309 113.092 54.9507 115.767 52.5431C118.442 50.1355 122.455 50.1355 125.13 52.8106Z" fill="#DAE7EA"/>
<path d="M94.098 59.5032C91.4229 57.8982 87.9452 58.7007 86.3401 61.3758C84.7351 64.0509 85.5376 67.5286 88.2127 69.1336L103.996 78.764C106.671 80.3691 110.149 79.5666 111.754 76.8914C113.359 74.2163 112.556 70.7387 109.881 69.1336L94.098 59.5032Z" fill="#132528"/>
<path d="M131.549 146.445H130.212V146.178C130.212 144.84 129.677 143.77 128.607 142.968L124.059 139.758C123.256 139.223 122.186 138.688 121.116 138.688C119.511 138.688 118.441 139.49 117.371 140.293C116.836 141.095 116.034 141.63 114.964 141.898H114.696C114.161 142.165 113.626 142.7 113.626 143.235V146.713V147.515V147.783H114.161H125.129H131.282C131.817 147.783 132.352 147.248 132.352 146.713C132.352 146.713 132.084 146.445 131.549 146.445Z" fill="#6E768C"/>
<path d="M131.551 145.921V146.189H122.724L124.061 144.584C124.596 144.049 125.131 143.781 125.934 143.781H129.679C130.481 143.781 131.551 144.851 131.551 145.921Z" fill="#6E768C"/>
<path d="M107.471 146.445H106.134V146.178C106.134 144.84 105.598 143.77 104.528 142.968L99.9808 139.758C99.1782 139.223 98.1082 138.688 97.0381 138.688C95.4331 138.688 94.3631 139.49 93.293 140.293C92.758 141.095 91.9554 141.63 90.8854 141.898H90.6179C90.0829 142.165 89.5479 142.7 89.5479 143.235V146.713V147.515V147.783H90.0829H101.051H107.204C107.739 147.783 108.274 147.248 108.274 146.713C108.274 146.713 108.006 146.445 107.471 146.445Z" fill="#6E768C"/>
<path d="M107.469 145.921V146.189H98.6416L99.9792 144.584C100.514 144.049 101.049 143.781 101.852 143.781H105.597C106.399 143.781 107.469 144.851 107.469 145.921Z" fill="#6E768C"/>
<path d="M108.543 58.1719H105.868V62.7196H108.543V58.1719Z" fill="white"/>
<path d="M129.675 56.5547L128.872 62.4399L132.35 62.1724L129.675 56.5547Z" fill="#132528"/>
<path d="M108.541 39.4414H103.459C102.656 39.4414 101.854 39.9764 101.854 40.779C101.586 41.849 102.389 42.6515 103.459 42.6515H104.529V43.9891C104.529 44.7916 105.064 45.3266 105.866 45.5941C106.936 45.8617 107.739 45.0591 107.739 43.9891V43.4541C107.739 42.919 108.274 42.384 108.809 42.384C109.611 42.384 110.414 41.849 110.414 41.0465C110.146 40.5114 109.344 39.4414 108.541 39.4414Z" fill="#132528"/>
<path d="M125.661 40.5175H100.247V35.4348C100.247 29.5496 105.062 24.7344 110.948 24.7344H112.018C115.763 24.7344 118.705 26.6069 120.845 29.2821C122.183 31.1546 122.718 33.2947 122.718 35.4348V35.7023C122.718 35.9698 122.986 36.5049 123.253 36.7724C123.521 37.0399 124.056 37.3074 124.591 37.3074H125.661C126.463 37.3074 127.266 37.8424 127.533 38.6449C127.533 39.4475 126.731 40.5175 125.661 40.5175Z" fill="#053588"/>
<path d="M160.073 75.455H208.638C204.95 71.3311 199.614 68.5172 194.617 68.5172C192.094 68.5172 189.959 69.2449 188.407 70.5063C184.04 64.5389 176.763 60.2695 170.019 60.2695C161.626 60.2695 157.163 67.0617 160.073 75.455Z" fill="white"/>
</svg>
