<svg width="215" height="170" viewBox="0 0 215 170" fill="none" xmlns="http://www.w3.org/2000/svg">
<circle opacity="0.2" cx="114.364" cy="85" r="85" fill="#DAE7EA"/>
<path d="M203.691 147.805H105.091C108.954 145.486 114.054 143.632 119.464 142.859C126.727 141.932 133.373 143.014 137.854 145.486C138.936 143.941 140.173 142.241 141.718 140.85C141.564 140.386 141.254 139.923 141.1 139.459C140.173 136.832 140.327 134.668 141.254 134.668C141.873 134.668 142.491 135.286 143.264 136.368C143.418 135.75 143.727 134.977 144.036 134.205C145.427 130.959 147.745 128.177 149.291 128.023C150.836 127.868 150.991 130.341 149.6 133.432C149.136 134.668 148.364 135.75 147.745 136.832C149.909 135.75 152.227 134.823 154.7 134.205C165.054 131.732 173.091 135.905 172.782 143.477C172.782 144.095 172.627 144.559 172.627 145.177C174.173 144.405 176.027 143.941 177.882 143.477C177.882 141.623 178.809 138.995 180.818 135.905C184.682 129.877 190.709 124.314 194.264 123.695C197.818 123.077 197.664 127.405 193.954 133.586C193.027 134.977 192.1 136.368 190.864 137.759C192.873 137.295 194.727 137.295 195.809 137.759C197.509 138.532 196.118 140.541 192.718 142.086C191.636 142.55 190.554 143.014 189.473 143.323C190.864 143.477 192.254 143.786 193.645 144.095C197.354 144.714 200.754 146.105 203.691 147.805Z" fill="#053588"/>
<path d="M1.97562 69.2356H109.728C101.547 60.0859 89.7057 53.8425 78.6183 53.8425C73.0208 53.8425 68.2845 55.4572 64.8399 58.2559C55.1519 45.0157 39.0052 35.543 24.0427 35.543C5.42023 35.543 -4.48305 50.6132 1.97562 69.2356Z" fill="white"/>
<path d="M214.666 46.1003H108.185C115.757 40.0731 124.412 35.7458 132.139 34.5094C141.103 33.1185 146.821 36.5185 148.057 42.7003C148.366 42.7003 148.83 42.5458 149.139 42.5458C152.23 42.2367 154.857 42.5458 157.175 43.3185C162.121 35.9003 168.612 29.4094 174.794 26.3185C183.448 22.1458 188.394 26.4731 186.539 36.0549C193.957 33.4276 198.594 36.9822 198.594 44.4003C200.294 43.9367 201.839 43.6276 203.539 43.4731C208.176 43.164 212.039 44.0912 214.666 46.1003Z" fill="white"/>
<path d="M97.8275 148.101H24.7275C26.7366 143.774 30.2912 139.91 35.2366 137.438C39.4094 135.274 43.7366 134.501 47.7548 134.656C44.0457 127.238 51.1548 127.392 51.1548 127.392L49.9184 133.265C58.7275 119.047 76.5003 120.592 76.5003 120.592L54.8639 132.801C57.6457 132.956 59.1912 134.501 58.573 137.283C58.4184 137.747 58.2639 138.21 58.1094 138.674C59.5003 139.91 60.7366 141.301 61.6639 143.001C61.973 143.62 62.2821 144.392 62.5912 145.165C68.1548 142.383 73.7184 140.992 78.973 140.529C78.6639 139.292 78.8184 138.21 79.5912 137.747C80.3639 137.283 81.2912 137.592 82.373 138.056C82.6821 137.438 82.9912 136.82 83.4548 136.047C85.773 132.492 89.173 130.174 91.0275 130.792C92.8821 131.41 92.4184 134.656 90.1003 138.21C90.1003 138.21 90.1003 138.21 89.9457 138.365C92.2639 137.438 94.8912 137.129 95.6639 138.056C96.4366 138.829 95.2003 140.374 92.7275 141.456C91.9548 141.765 91.1821 142.074 90.5639 142.229C93.6548 143.156 96.2821 145.32 97.8275 148.101Z" fill="#053588"/>
<path d="M116.233 141.314L112.858 129.042L107.336 108.488L104.268 97.4435C103.041 93.1485 98.7463 90.6942 94.7582 91.9214C90.1564 93.1485 87.7021 98.3638 89.8496 102.966L96.5989 116.771C95.3717 119.225 95.3717 122.907 97.826 125.974L106.416 140.7C107.95 143.154 110.711 144.995 113.779 143.461C114.699 143.154 115.313 142.541 115.926 141.927L117.153 142.848L116.233 141.314Z" fill="#132528"/>
<path d="M126.36 146.217V145.91C126.36 144.683 125.44 144.07 122.986 142.229L117.77 138.547C116.85 137.934 115.623 137.32 114.396 137.32C112.555 137.32 111.328 138.241 110.101 139.161C109.487 140.081 108.567 140.695 107.34 141.002H107.033C106.419 141.308 105.806 141.922 105.806 142.536V146.524V147.444V147.751H106.419H118.997H126.053C126.667 147.751 127.281 147.137 127.281 146.524C127.281 146.524 126.667 146.217 126.36 146.217Z" fill="#6E768C"/>
<path d="M84.6356 90.9957C79.7271 89.7685 75.1253 93.4499 75.1253 98.3584L74.5118 113.698C72.0575 115.232 70.8304 118.606 71.1371 122.594L71.7507 139.468C72.0575 142.535 73.2846 145.296 76.966 145.603C77.8864 145.603 78.8068 145.603 79.4203 144.99L80.0339 146.217L80.3407 144.376L83.1017 132.105L88.0103 111.55L90.7713 100.506C91.6917 96.211 88.9306 92.2228 84.6356 90.9957Z" fill="#132528"/>
<path d="M100.898 83.9492L87.3994 91.6188L107.647 110.333L100.898 83.9492Z" fill="#132528"/>
<path d="M103.352 90.9976C103.352 99.5875 96.2955 106.644 87.7056 106.644C79.1156 106.644 72.0596 99.5875 72.0596 90.9976C72.0596 88.2365 72.9799 85.4754 74.2071 83.0212C76.9681 78.4194 81.8767 75.3516 87.7056 75.3516C95.0684 75.3516 101.511 80.5669 103.045 87.6229C103.352 88.8501 103.352 89.7704 103.352 90.9976Z" fill="#132528"/>
<mask id="path-11-inside-1_4037_145613" fill="white">
<path fill-rule="evenodd" clip-rule="evenodd" d="M98.1353 50.5053L99.5304 51.4921C101.032 50.6425 102.904 50.5988 104.269 51.7366L107.721 54.1917L107.888 53.957L108.829 54.6239C110.382 54.0283 112.111 54.1383 113.472 55.1099L117.767 58.1777C119.727 59.4029 120.317 61.8024 119.694 63.8129C119.876 64.4481 119.917 65.1368 119.792 65.8234L123.292 68.2988C123.436 68.3948 123.574 68.4959 123.706 68.6016H140.779C144.153 68.6016 146.608 71.3626 146.608 74.4305C146.608 77.8051 143.846 80.2594 140.779 80.2594H120.838C119.005 80.2594 117.443 79.4447 116.399 78.2087L116.311 78.8095C116.539 80.2645 116.232 81.7952 115.313 83.0203C113.472 85.4745 109.791 86.0881 107.337 84.2474L106.072 83.3519C105.172 83.9575 104.57 84.5591 104.267 84.8619L101.506 90.6908C98.4385 97.1333 90.7689 99.5875 84.3264 96.5197C84.173 96.5197 84.0196 96.443 83.8662 96.3663C83.7128 96.2896 83.5594 96.2129 83.406 96.2129C76.6568 92.5315 75.1229 83.6348 79.4178 77.4991L81.5653 74.4313C83.7128 71.6702 85.8603 66.4549 86.4739 63.0802L86.762 61.4666C86.5364 61.1127 86.3367 60.7318 86.167 60.3245C84.9544 56.9898 86.4379 53.0559 90.0256 51.4832C92.2114 49.2033 95.5705 48.7954 98.1353 50.5053Z"/>
</mask>
<path fill-rule="evenodd" clip-rule="evenodd" d="M98.1353 50.5053L99.5304 51.4921C101.032 50.6425 102.904 50.5988 104.269 51.7366L107.721 54.1917L107.888 53.957L108.829 54.6239C110.382 54.0283 112.111 54.1383 113.472 55.1099L117.767 58.1777C119.727 59.4029 120.317 61.8024 119.694 63.8129C119.876 64.4481 119.917 65.1368 119.792 65.8234L123.292 68.2988C123.436 68.3948 123.574 68.4959 123.706 68.6016H140.779C144.153 68.6016 146.608 71.3626 146.608 74.4305C146.608 77.8051 143.846 80.2594 140.779 80.2594H120.838C119.005 80.2594 117.443 79.4447 116.399 78.2087L116.311 78.8095C116.539 80.2645 116.232 81.7952 115.313 83.0203C113.472 85.4745 109.791 86.0881 107.337 84.2474L106.072 83.3519C105.172 83.9575 104.57 84.5591 104.267 84.8619L101.506 90.6908C98.4385 97.1333 90.7689 99.5875 84.3264 96.5197C84.173 96.5197 84.0196 96.443 83.8662 96.3663C83.7128 96.2896 83.5594 96.2129 83.406 96.2129C76.6568 92.5315 75.1229 83.6348 79.4178 77.4991L81.5653 74.4313C83.7128 71.6702 85.8603 66.4549 86.4739 63.0802L86.762 61.4666C86.5364 61.1127 86.3367 60.7318 86.167 60.3245C84.9544 56.9898 86.4379 53.0559 90.0256 51.4832C92.2114 49.2033 95.5705 48.7954 98.1353 50.5053Z" fill="white"/>
<path d="M99.5304 51.4921L98.9529 52.3085L99.4708 52.6748L100.023 52.3624L99.5304 51.4921ZM98.1353 50.5053L98.7128 49.6889L98.7015 49.6809L98.69 49.6732L98.1353 50.5053ZM104.269 51.7366L103.629 52.5048L103.658 52.5293L103.689 52.5515L104.269 51.7366ZM107.721 54.1917L107.142 55.0067L107.958 55.5872L108.537 54.7698L107.721 54.1917ZM107.888 53.957L108.466 53.1411L107.65 52.563L107.072 53.3789L107.888 53.957ZM108.829 54.6239L108.251 55.4399L108.687 55.7492L109.187 55.5576L108.829 54.6239ZM113.472 55.1099L112.89 55.9236V55.9236L113.472 55.1099ZM117.767 58.1777L117.185 58.9915L117.21 59.0094L117.237 59.0257L117.767 58.1777ZM119.694 63.8129L118.739 63.5167L118.65 63.802L118.733 64.089L119.694 63.8129ZM119.792 65.8234L118.808 65.6444L118.694 66.2716L119.214 66.6398L119.792 65.8234ZM123.292 68.2988L122.714 69.1152L122.725 69.1232L122.737 69.1308L123.292 68.2988ZM123.706 68.6016L123.082 69.383L123.356 69.6016H123.706V68.6016ZM116.399 78.2087L117.163 77.5634L115.731 75.8682L115.41 78.0639L116.399 78.2087ZM116.311 78.8095L115.322 78.6647L115.3 78.8145L115.323 78.9642L116.311 78.8095ZM115.313 83.0203L114.513 82.4203V82.4203L115.313 83.0203ZM107.337 84.2474L107.937 83.4474L107.926 83.4393L107.915 83.4314L107.337 84.2474ZM106.072 83.3519L106.65 82.5359L106.087 82.1369L105.514 82.5221L106.072 83.3519ZM104.267 84.8619L103.56 84.1548L103.438 84.2773L103.364 84.4338L104.267 84.8619ZM101.506 90.6908L102.409 91.1207L102.41 91.1189L101.506 90.6908ZM84.3264 96.5197L84.7563 95.6168L84.5523 95.5197H84.3264V96.5197ZM83.406 96.2129L82.9272 97.0908L83.151 97.2129H83.406V96.2129ZM79.4178 77.4991L80.2371 78.0726H80.2371L79.4178 77.4991ZM81.5653 74.4313L80.776 73.8173L80.7605 73.8372L80.7461 73.8578L81.5653 74.4313ZM86.4739 63.0802L87.4578 63.2591L87.4583 63.256L86.4739 63.0802ZM86.762 61.4666L87.7465 61.6424L87.8151 61.2581L87.6052 60.929L86.762 61.4666ZM86.167 60.3245L85.2272 60.6662L85.2351 60.6879L85.2439 60.7091L86.167 60.3245ZM90.0256 51.4832L90.427 52.399L90.6095 52.3191L90.7474 52.1753L90.0256 51.4832ZM100.108 50.6757L98.7128 49.6889L97.5578 51.3217L98.9529 52.3085L100.108 50.6757ZM104.909 50.9683C103.153 49.5052 100.814 49.6169 99.038 50.6217L100.023 52.3624C101.25 51.6681 102.654 51.6925 103.629 52.5048L104.909 50.9683ZM108.301 53.3767L104.848 50.9216L103.689 52.5515L107.142 55.0067L108.301 53.3767ZM107.072 53.3789L106.905 53.6136L108.537 54.7698L108.704 54.5351L107.072 53.3789ZM109.407 53.8079L108.466 53.1411L107.31 54.773L108.251 55.4399L109.407 53.8079ZM114.053 54.2962C112.379 53.1007 110.288 52.9933 108.471 53.6902L109.187 55.5576C110.476 55.0633 111.844 55.1759 112.89 55.9236L114.053 54.2962ZM118.348 57.364L114.053 54.2962L112.89 55.9236L117.185 58.9915L118.348 57.364ZM120.649 64.1091C121.38 61.7515 120.714 58.8405 118.297 57.3297L117.237 59.0257C118.74 59.9654 119.254 61.8533 118.739 63.5167L120.649 64.1091ZM120.776 66.0024C120.929 65.1623 120.879 64.3179 120.655 63.5368L118.733 64.089C118.873 64.5783 118.905 65.1112 118.808 65.6444L120.776 66.0024ZM123.869 67.4824L120.369 65.007L119.214 66.6398L122.714 69.1152L123.869 67.4824ZM124.33 67.8202C124.175 67.6966 124.014 67.5786 123.846 67.4667L122.737 69.1308C122.857 69.211 122.972 69.2952 123.082 69.383L124.33 67.8202ZM140.779 67.6016H123.706V69.6016H140.779V67.6016ZM147.608 74.4305C147.608 70.8449 144.74 67.6016 140.779 67.6016V69.6016C143.567 69.6016 145.608 71.8803 145.608 74.4305H147.608ZM140.779 81.2594C144.364 81.2594 147.608 78.3913 147.608 74.4305H145.608C145.608 77.2188 143.329 79.2594 140.779 79.2594V81.2594ZM120.838 81.2594H140.779V79.2594H120.838V81.2594ZM115.635 78.8541C116.859 80.3026 118.694 81.2594 120.838 81.2594V79.2594C119.315 79.2594 118.027 78.5868 117.163 77.5634L115.635 78.8541ZM117.301 78.9543L117.388 78.3535L115.41 78.0639L115.322 78.6647L117.301 78.9543ZM116.113 83.6203C117.211 82.1562 117.564 80.3463 117.299 78.6547L115.323 78.9642C115.514 80.1826 115.252 81.4343 114.513 82.4203L116.113 83.6203ZM106.737 85.0474C109.655 87.236 113.958 86.494 116.113 83.6203L114.513 82.4203C112.987 84.4551 109.927 84.9402 107.937 83.4474L106.737 85.0474ZM105.494 84.168L106.758 85.0634L107.915 83.4314L106.65 82.5359L105.494 84.168ZM104.974 85.569C105.266 85.2772 105.813 84.7316 106.63 84.1818L105.514 82.5221C104.531 83.1834 103.874 83.8411 103.56 84.1548L104.974 85.569ZM102.41 91.1189L105.171 85.29L103.364 84.4338L100.603 90.2627L102.41 91.1189ZM83.8965 97.4226C90.8045 100.712 99.0884 98.0942 102.409 91.1207L100.603 90.2609C97.7885 96.1723 90.7332 98.463 84.7563 95.6168L83.8965 97.4226ZM83.419 97.2607C83.5143 97.3084 83.891 97.5197 84.3264 97.5197V95.5197C84.3714 95.5197 84.4054 95.5253 84.425 95.5296C84.4441 95.5338 84.4525 95.5373 84.4474 95.5354C84.4422 95.5335 84.4296 95.5284 84.4057 95.5172C84.3941 95.5117 84.3809 95.5054 84.3653 95.4977C84.3494 95.4899 84.3331 95.4817 84.3134 95.4719L83.419 97.2607ZM83.406 97.2129C83.361 97.2129 83.327 97.2073 83.3074 97.203C83.2884 97.1988 83.2799 97.1953 83.285 97.1972C83.2903 97.1992 83.3028 97.2042 83.3267 97.2155C83.3384 97.2209 83.3515 97.2272 83.3671 97.2349C83.383 97.2427 83.3994 97.2509 83.419 97.2607L84.3134 95.4719C84.2181 95.4242 83.8414 95.2129 83.406 95.2129V97.2129ZM78.5986 76.9256C74 83.495 75.5974 93.0928 82.9272 97.0908L83.8849 95.335C77.7161 91.9703 76.2457 83.7745 80.2371 78.0726L78.5986 76.9256ZM80.7461 73.8578L78.5986 76.9256L80.2371 78.0726L82.3846 75.0047L80.7461 73.8578ZM85.49 62.9013C85.2004 64.4941 84.5376 66.5682 83.6748 68.594C82.8104 70.6235 81.7763 72.5312 80.776 73.8173L82.3547 75.0452C83.5019 73.5702 84.6153 71.4897 85.5148 69.3777C86.416 67.2619 87.1338 65.041 87.4577 63.2591L85.49 62.9013ZM85.7776 61.2908L85.4895 62.9044L87.4583 63.256L87.7465 61.6424L85.7776 61.2908ZM85.2439 60.7091C85.4357 61.1693 85.6621 61.6014 85.9188 62.0042L87.6052 60.929C87.4108 60.624 87.2377 60.2942 87.0901 59.9399L85.2439 60.7091ZM89.6241 50.5673C85.5395 52.3578 83.8396 56.8504 85.2272 60.6662L87.1068 59.9828C86.0691 57.1291 87.3363 53.7539 90.427 52.399L89.6241 50.5673ZM98.69 49.6732C95.7061 47.684 91.8116 48.1754 89.3037 50.7911L90.7474 52.1753C92.6113 50.2313 95.4348 49.9068 97.5806 51.3373L98.69 49.6732Z" fill="#132528" mask="url(#path-11-inside-1_4037_145613)"/>
<path d="M113.472 40.0651C109.177 38.838 104.882 40.9855 103.348 45.2804L101.507 50.8025C100.28 55.0975 102.428 59.3925 106.723 60.9264C111.018 62.1536 115.313 60.0061 116.847 55.7111L118.687 50.189C120.221 45.894 117.767 41.2922 113.472 40.0651Z" fill="#132528"/>
<path d="M128.2 44.0625H124.825V55.7203H125.439C129.12 55.7203 131.881 52.9592 131.881 49.2778V47.7439C132.188 45.9032 130.347 44.0625 128.2 44.0625Z" fill="#132528"/>
<path d="M120.034 52.2344V57.2565C120.034 60.338 117.514 62.5854 114.705 62.5854C111.623 62.5854 109.376 60.0655 109.376 57.2565V52.2344H120.034Z" fill="white" stroke="#132528"/>
<mask id="path-16-inside-2_4037_145613" fill="white">
<path fill-rule="evenodd" clip-rule="evenodd" d="M128.812 44.0557C128.812 38.2268 124.21 33.625 118.381 33.625C112.859 33.625 107.95 38.5335 107.95 44.0557V44.6921C106.561 44.8775 105.493 46.3086 105.493 47.7397V48.6601C105.493 50.1023 106.578 51.2733 107.983 51.6632C108.19 54.3847 109.38 56.8072 111.325 58.4745C113.166 60.0084 115.62 61.2356 118.381 61.2356C121.142 61.2356 123.903 60.0084 125.744 58.1677C126.971 56.9406 127.891 55.4067 128.505 53.8727C128.812 52.9524 128.812 51.7253 128.812 50.8049V50.8049V44.0557Z"/>
</mask>
<path fill-rule="evenodd" clip-rule="evenodd" d="M128.812 44.0557C128.812 38.2268 124.21 33.625 118.381 33.625C112.859 33.625 107.95 38.5335 107.95 44.0557V44.6921C106.561 44.8775 105.493 46.3086 105.493 47.7397V48.6601C105.493 50.1023 106.578 51.2733 107.983 51.6632C108.19 54.3847 109.38 56.8072 111.325 58.4745C113.166 60.0084 115.62 61.2356 118.381 61.2356C121.142 61.2356 123.903 60.0084 125.744 58.1677C126.971 56.9406 127.891 55.4067 128.505 53.8727C128.812 52.9524 128.812 51.7253 128.812 50.8049V50.8049V44.0557Z" fill="white"/>
<path d="M107.95 44.6921L108.083 45.6833L108.95 45.5675V44.6921H107.95ZM107.983 51.6632L108.98 51.5873L108.926 50.8873L108.25 50.6996L107.983 51.6632ZM111.325 58.4745L110.674 59.2338L110.685 59.2427L111.325 58.4745ZM128.505 53.8727L129.433 54.2441L129.444 54.2168L129.453 54.189L128.505 53.8727ZM118.381 34.625C123.657 34.625 127.812 38.779 127.812 44.0557H129.812C129.812 37.6745 124.762 32.625 118.381 32.625V34.625ZM108.95 44.0557C108.95 39.0858 113.411 34.625 118.381 34.625V32.625C112.306 32.625 106.95 37.9813 106.95 44.0557H108.95ZM108.95 44.6921V44.0557H106.95V44.6921H108.95ZM107.818 43.7009C105.843 43.9645 104.493 45.9027 104.493 47.7397H106.493C106.493 46.7145 107.279 45.7905 108.083 45.6833L107.818 43.7009ZM104.493 47.7397V48.6601H106.493V47.7397H104.493ZM104.493 48.6601C104.493 50.6451 105.975 52.1437 107.715 52.6267L108.25 50.6996C107.181 50.4029 106.493 49.5595 106.493 48.6601H104.493ZM111.976 57.7152C110.246 56.2325 109.168 54.0628 108.98 51.5873L106.985 51.739C107.211 54.7067 108.513 57.3819 110.674 59.2338L111.976 57.7152ZM118.381 60.2356C115.919 60.2356 113.684 59.1386 111.965 57.7063L110.685 59.2427C112.647 60.8782 115.32 62.2356 118.381 62.2356V60.2356ZM125.037 57.4606C123.375 59.1226 120.865 60.2356 118.381 60.2356V62.2356C121.419 62.2356 124.431 60.8943 126.451 58.8748L125.037 57.4606ZM127.576 53.5014C127.003 54.9355 126.15 56.3472 125.037 57.4606L126.451 58.8748C127.792 57.5339 128.78 55.8778 129.433 54.2441L127.576 53.5014ZM127.812 50.8049C127.812 51.772 127.801 52.8211 127.556 53.5565L129.453 54.189C129.822 53.0837 129.812 51.6786 129.812 50.8049H127.812ZM127.812 50.8049V50.8049H129.812V50.8049H127.812ZM127.812 44.0557V50.8049H129.812V44.0557H127.812Z" fill="#132528" mask="url(#path-16-inside-2_4037_145613)"/>
<path d="M118.075 41.293C118.075 43.7472 119.916 45.5879 122.37 45.5879H129.426C131.88 45.5879 133.721 43.7472 133.721 41.293H118.075Z" fill="#132528"/>
<path d="M125.122 93.4043C121.441 92.4839 119.293 88.8025 120.214 85.1211C121.134 81.4397 124.815 79.2922 128.497 80.2126C132.178 81.1329 134.326 84.8143 133.405 88.4957C132.178 91.8704 128.803 94.0178 125.122 93.4043Z" fill="#DAE7EA"/>
<path d="M97.5205 80.5665C95.6798 80.2597 93.8391 81.4869 93.5323 83.3276C93.2255 85.1683 94.4527 87.009 96.2934 87.3158C98.1341 87.6225 99.9748 86.3954 100.282 84.5547C100.588 82.714 99.3612 80.8733 97.5205 80.5665Z" fill="#053588"/>
<path d="M94.4539 146.209H92.92V145.902C92.92 144.369 92.3065 143.141 91.0793 142.221L85.864 138.54C84.9436 137.926 83.7165 137.312 82.4894 137.312C80.6487 137.312 79.4215 138.233 78.1944 139.153C77.5808 140.074 76.6605 140.687 75.4333 140.994H75.1265C74.513 141.301 73.8994 141.914 73.8994 142.528V146.516V147.436V147.743H74.513H87.0911H94.1472C94.7607 147.743 95.3743 147.13 95.3743 146.516C95.3743 146.516 95.0675 146.209 94.4539 146.209Z" fill="#6E768C"/>
<path d="M94.4569 145.591V145.898H84.333L85.8669 144.057C86.4805 143.443 87.0941 143.137 88.0144 143.137H92.3094C93.2297 143.137 94.4569 144.364 94.4569 145.591Z" fill="#6E768C"/>
<path d="M107.646 39.7677V50.1984H109.793C112.554 50.1984 115.008 48.0509 115.008 44.9831V39.4609H107.646V39.7677Z" fill="#132528"/>
<path d="M132.802 42.8385H103.657V37.0096C103.657 30.2604 109.179 24.7383 115.929 24.7383H117.156C121.451 24.7383 124.825 26.8858 127.28 29.9536C128.814 32.1011 129.427 34.5554 129.427 37.0096V37.3164C129.427 37.6232 129.734 38.2368 130.041 38.5436C130.347 38.8503 130.961 39.1571 131.575 39.1571H132.802C133.722 39.1571 134.642 39.7707 134.949 40.6911C134.949 41.9182 134.029 42.8385 132.802 42.8385Z" fill="#053588"/>
<path d="M142.621 104.797C139.553 104.797 137.099 107.251 137.099 110.319C137.099 113.387 139.553 115.841 142.621 115.841C145.689 115.841 148.143 113.387 148.143 110.319C148.143 107.251 145.689 104.797 142.621 104.797Z" fill="white"/>
<mask id="path-26-inside-3_4037_145613" fill="white">
<path fill-rule="evenodd" clip-rule="evenodd" d="M148.143 110.013V78.7211C148.143 78.7211 147.223 77.8008 146.302 77.8008C145.382 77.8008 144.461 78.7211 144.461 79.6415V106.641H140.782V109.488C140.781 109.459 140.78 109.43 140.78 109.4V79.9483C140.78 79.0279 140.166 78.1076 139.246 78.1076C138.019 78.1076 137.099 78.7211 137.099 79.9483V110.32C137.099 110.933 137.099 111.547 137.405 111.854C137.405 112.007 137.482 112.084 137.559 112.161C137.636 112.237 137.712 112.314 137.712 112.467C138.356 113.754 139.449 114.741 140.782 115.219V145.602C140.782 146.523 141.703 147.443 142.623 147.443C142.93 147.443 143.543 147.136 143.85 146.829C144.157 146.523 144.464 146.216 144.464 145.602V115.247C145.308 114.981 146.066 114.545 146.609 114.001C146.762 113.695 146.916 113.464 147.069 113.234C147.223 113.004 147.376 112.774 147.529 112.467C147.529 112.467 147.836 112.161 147.836 111.854C148.143 111.24 148.143 110.627 148.143 110.013Z"/>
</mask>
<path fill-rule="evenodd" clip-rule="evenodd" d="M148.143 110.013V78.7211C148.143 78.7211 147.223 77.8008 146.302 77.8008C145.382 77.8008 144.461 78.7211 144.461 79.6415V106.641H140.782V109.488C140.781 109.459 140.78 109.43 140.78 109.4V79.9483C140.78 79.0279 140.166 78.1076 139.246 78.1076C138.019 78.1076 137.099 78.7211 137.099 79.9483V110.32C137.099 110.933 137.099 111.547 137.405 111.854C137.405 112.007 137.482 112.084 137.559 112.161C137.636 112.237 137.712 112.314 137.712 112.467C138.356 113.754 139.449 114.741 140.782 115.219V145.602C140.782 146.523 141.703 147.443 142.623 147.443C142.93 147.443 143.543 147.136 143.85 146.829C144.157 146.523 144.464 146.216 144.464 145.602V115.247C145.308 114.981 146.066 114.545 146.609 114.001C146.762 113.695 146.916 113.464 147.069 113.234C147.223 113.004 147.376 112.774 147.529 112.467C147.529 112.467 147.836 112.161 147.836 111.854C148.143 111.24 148.143 110.627 148.143 110.013Z" fill="white"/>
<path d="M148.143 78.7211H149.143V78.3069L148.85 78.014L148.143 78.7211ZM144.461 106.641V107.641H145.461V106.641H144.461ZM140.782 106.641V105.641H139.782V106.641H140.782ZM140.782 109.488L139.783 109.538L141.782 109.488H140.782ZM137.405 111.854H138.405V111.44L138.113 111.147L137.405 111.854ZM137.559 112.161L136.852 112.868L136.852 112.868L137.559 112.161ZM137.712 112.467H136.712V112.703L136.818 112.915L137.712 112.467ZM140.782 115.219H141.782V114.515L141.119 114.277L140.782 115.219ZM143.85 146.829L143.143 146.122L143.143 146.122L143.85 146.829ZM144.464 115.247L144.163 114.294L143.464 114.514V115.247H144.464ZM146.609 114.001L147.316 114.708L147.431 114.594L147.503 114.449L146.609 114.001ZM147.069 113.234L146.237 112.68L146.237 112.68L147.069 113.234ZM147.529 112.467L146.822 111.76L146.707 111.875L146.635 112.02L147.529 112.467ZM147.836 111.854L146.942 111.407L146.836 111.618V111.854H147.836ZM147.143 78.7211V110.013H149.143V78.7211H147.143ZM146.302 78.8008C146.462 78.8008 146.718 78.8961 147.013 79.093C147.144 79.1806 147.256 79.2697 147.334 79.3366C147.372 79.3696 147.401 79.396 147.419 79.4126C147.428 79.4209 147.434 79.4266 147.437 79.4294C147.438 79.4308 147.439 79.4314 147.439 79.4312C147.439 79.4312 147.438 79.4309 147.438 79.4304C147.438 79.4301 147.437 79.4298 147.437 79.4295C147.437 79.4293 147.437 79.4291 147.436 79.4289C147.436 79.4288 147.436 79.4286 147.436 79.4286C147.436 79.4284 147.436 79.4282 148.143 78.7211C148.85 78.014 148.85 78.0139 148.85 78.0137C148.85 78.0136 148.849 78.0134 148.849 78.0133C148.849 78.013 148.849 78.0128 148.848 78.0125C148.848 78.0119 148.847 78.0113 148.846 78.0106C148.845 78.0092 148.843 78.0076 148.842 78.0058C148.838 78.0021 148.833 77.9976 148.828 77.9922C148.817 77.9815 148.802 77.9674 148.784 77.9505C148.748 77.9168 148.698 77.8714 148.635 77.8181C148.512 77.7124 148.336 77.5714 148.122 77.4289C147.727 77.1656 147.063 76.8008 146.302 76.8008V78.8008ZM145.461 79.6415C145.461 79.5065 145.539 79.2879 145.744 79.0831C145.949 78.8783 146.167 78.8008 146.302 78.8008V76.8008C145.517 76.8008 144.815 77.1834 144.33 77.6689C143.844 78.1544 143.461 78.8561 143.461 79.6415H145.461ZM145.461 106.641V79.6415H143.461V106.641H145.461ZM140.782 107.641H144.461V105.641H140.782V107.641ZM141.782 109.488V106.641H139.782V109.488H141.782ZM139.78 109.4C139.78 109.446 139.781 109.492 139.783 109.538L141.781 109.438C141.78 109.426 141.78 109.413 141.78 109.4H139.78ZM139.78 79.9483V109.4H141.78V79.9483H139.78ZM139.246 79.1076C139.342 79.1076 139.453 79.1476 139.569 79.2967C139.693 79.4567 139.78 79.6979 139.78 79.9483H141.78C141.78 79.2782 141.56 78.5991 141.148 78.0688C140.727 77.5277 140.071 77.1076 139.246 77.1076V79.1076ZM138.099 79.9483C138.099 79.6109 138.211 79.4491 138.337 79.3486C138.492 79.2241 138.785 79.1076 139.246 79.1076V77.1076C138.48 77.1076 137.699 77.2978 137.088 77.7869C136.446 78.3 136.099 79.0584 136.099 79.9483H138.099ZM138.099 110.32V79.9483H136.099V110.32H138.099ZM138.113 111.147C138.19 111.224 138.155 111.258 138.127 111.06C138.101 110.876 138.099 110.645 138.099 110.32H136.099C136.099 110.608 136.097 110.991 136.147 111.343C136.196 111.683 136.314 112.177 136.698 112.561L138.113 111.147ZM138.266 111.454C138.243 111.431 138.246 111.433 138.252 111.44C138.261 111.45 138.285 111.478 138.311 111.521C138.338 111.567 138.364 111.622 138.382 111.686C138.399 111.75 138.405 111.807 138.405 111.854H136.405C136.405 112.447 136.764 112.78 136.852 112.868L138.266 111.454ZM138.712 112.467C138.712 111.874 138.353 111.541 138.266 111.453L136.852 112.868C136.875 112.891 136.871 112.888 136.865 112.881C136.856 112.871 136.833 112.843 136.807 112.8C136.78 112.755 136.754 112.699 136.736 112.635C136.718 112.572 136.712 112.514 136.712 112.467H138.712ZM141.119 114.277C140.037 113.889 139.139 113.085 138.607 112.02L136.818 112.915C137.572 114.424 138.861 115.593 140.445 116.16L141.119 114.277ZM141.782 145.602V115.219H139.782V145.602H141.782ZM142.623 146.443C142.488 146.443 142.269 146.365 142.065 146.161C141.86 145.956 141.782 145.737 141.782 145.602H139.782C139.782 146.388 140.165 147.089 140.65 147.575C141.136 148.06 141.838 148.443 142.623 148.443V146.443ZM143.143 146.122C143.088 146.177 142.957 146.273 142.789 146.357C142.711 146.396 142.645 146.422 142.598 146.437C142.539 146.456 142.554 146.443 142.623 146.443V148.443C143.019 148.443 143.423 148.276 143.684 148.146C143.976 148 144.305 147.789 144.557 147.536L143.143 146.122ZM143.464 145.602C143.464 145.724 143.438 145.777 143.414 145.816C143.373 145.886 143.309 145.956 143.143 146.122L144.557 147.536C144.874 147.219 145.464 146.655 145.464 145.602H143.464ZM143.464 115.247V145.602H145.464V115.247H143.464ZM145.902 113.294C145.491 113.705 144.882 114.067 144.163 114.294L144.764 116.201C145.735 115.895 146.64 115.384 147.316 114.708L145.902 113.294ZM146.237 112.68C146.084 112.91 145.899 113.186 145.715 113.554L147.503 114.449C147.626 114.203 147.748 114.019 147.901 113.789L146.237 112.68ZM146.635 112.02C146.512 112.265 146.391 112.449 146.237 112.68L147.901 113.789C148.054 113.559 148.24 113.283 148.424 112.915L146.635 112.02ZM146.836 111.854C146.836 111.768 146.857 111.715 146.86 111.708C146.864 111.698 146.863 111.703 146.851 111.721C146.84 111.737 146.827 111.753 146.818 111.764C146.814 111.769 146.811 111.771 146.811 111.771C146.812 111.771 146.812 111.77 146.814 111.768C146.815 111.768 146.816 111.766 146.817 111.765C146.818 111.764 146.819 111.764 146.82 111.763C146.82 111.762 146.82 111.762 146.821 111.762C146.821 111.761 146.821 111.761 146.821 111.761C146.822 111.761 146.822 111.761 146.822 111.761C146.822 111.76 146.822 111.76 147.529 112.467C148.236 113.174 148.237 113.174 148.237 113.174C148.237 113.174 148.237 113.174 148.237 113.174C148.237 113.174 148.238 113.173 148.238 113.173C148.238 113.173 148.239 113.172 148.239 113.171C148.241 113.17 148.242 113.169 148.243 113.168C148.245 113.165 148.248 113.162 148.251 113.159C148.258 113.153 148.265 113.145 148.274 113.136C148.291 113.118 148.312 113.094 148.337 113.065C148.385 113.009 148.449 112.929 148.515 112.83C148.625 112.665 148.836 112.308 148.836 111.854H146.836ZM147.143 110.013C147.143 110.652 147.128 111.033 146.942 111.407L148.731 112.301C149.157 111.447 149.143 110.601 149.143 110.013H147.143Z" fill="#132528" mask="url(#path-26-inside-3_4037_145613)"/>
<path d="M146.607 76.8867H138.324C135.563 76.8867 133.415 79.0342 133.415 81.7953V83.3292C133.415 86.0903 135.563 88.2377 138.324 88.2377H146.607C149.368 88.2377 151.515 86.0903 151.515 83.3292V81.7953C151.515 79.0342 149.368 76.8867 146.607 76.8867Z" fill="#132528"/>
<path d="M136.985 75.0419C136.985 71.9434 139.523 69.4062 142.621 69.4062C145.72 69.4062 148.257 71.9434 148.257 75.0419C148.257 78.1404 145.72 80.6776 142.621 80.6776C139.523 80.6776 136.985 78.1404 136.985 75.0419Z" fill="white" stroke="#132528"/>
<path d="M150.902 73.1914H134.949C134.029 73.1914 133.415 73.805 133.415 74.7253C133.415 75.6457 134.029 76.2592 134.949 76.2592H150.902C151.822 76.2592 152.436 75.6457 152.436 74.7253C152.436 74.1118 151.515 73.1914 150.902 73.1914Z" fill="#6E768C"/>
<path d="M148.001 107V109.273C148.001 110.182 148.001 111.091 147.695 112H137.307C137.001 111.545 137.001 110.636 137.001 109.727V107H148.001Z" fill="#132528"/>
<path d="M140.307 88.0752L140.306 88.0759L120.991 146.33C120.726 146.849 120.47 147.105 120.18 147.396C120.148 147.428 120.062 147.479 119.881 147.479C119.704 147.479 119.474 147.427 119.223 147.302L119.191 147.286L119.157 147.275C118.491 147.053 118.019 146.4 118.253 145.434L137.574 87.1643C137.797 86.4941 138.457 86.0201 139.433 86.2641C139.886 86.3774 140.147 86.6471 140.281 86.9684C140.422 87.306 140.426 87.7176 140.307 88.0752Z" fill="white" stroke="#132528"/>
<path d="M129.458 111.225L128.399 114.43L131.895 115.585L132.954 112.381L129.458 111.225Z" fill="#132528"/>
<path d="M144.938 88.0759L144.938 88.0752C144.818 87.7176 144.822 87.306 144.963 86.9684C145.097 86.6471 145.359 86.3774 145.812 86.2641C146.787 86.0201 147.447 86.4939 147.67 87.1639C147.67 87.164 147.67 87.1642 147.67 87.1643L166.991 145.434C167.225 146.4 166.753 147.053 166.087 147.275L166.053 147.286L166.021 147.302C165.771 147.427 165.54 147.479 165.363 147.479C165.182 147.479 165.097 147.428 165.064 147.396C164.774 147.105 164.518 146.849 164.254 146.33L144.938 88.0759Z" fill="white" stroke="#132528"/>
<path d="M155.801 111.063L152.306 112.219L153.365 115.423L156.86 114.267L155.801 111.063Z" fill="#132528"/>
<path d="M145.994 85.1719C144.767 85.1719 143.54 86.399 143.54 87.6261C143.54 88.8533 144.767 90.0804 145.994 90.0804C147.221 90.0804 148.449 88.8533 148.449 87.6261C148.755 86.0922 147.528 85.1719 145.994 85.1719Z" fill="#132528"/>
<path d="M138.94 85.1719C140.167 85.1719 141.394 86.399 141.394 87.6261C141.394 88.8533 140.167 90.0804 138.94 90.0804C137.712 90.0804 136.485 88.8533 136.485 87.6261C136.485 86.0922 137.712 85.1719 138.94 85.1719Z" fill="#132528"/>
<path d="M137.599 69.0149V63.2656H144.268V69.0149H137.599Z" fill="white" stroke="#132528"/>
<path d="M133.723 66.332H154.277C155.535 66.332 156.539 67.3353 156.539 68.5931C156.539 69.8509 155.535 70.8542 154.277 70.8542H133.723C132.465 70.8542 131.462 69.8509 131.462 68.5931C131.462 67.3353 132.465 66.332 133.723 66.332Z" fill="white" stroke="#132528"/>
<path d="M157.655 43.4375H154.28C151.826 43.4375 149.985 45.8918 149.985 49.2664C149.985 52.3342 151.826 55.0953 154.28 55.0953H157.655C160.109 55.0953 161.95 52.641 161.95 49.2664C161.643 45.8918 159.802 43.4375 157.655 43.4375Z" fill="#053588"/>
<path d="M150.905 34.1172H154.28C157.071 34.1172 159.302 36.3476 159.302 39.1393V63.9888C159.302 66.7805 157.071 69.0109 154.28 69.0109H150.905C150.205 69.0109 149.681 68.8713 149.283 68.6449C148.887 68.4198 148.585 68.0915 148.354 67.6633C147.88 66.7833 147.724 65.5118 147.724 63.9888V39.1393C147.724 37.6163 147.88 36.3448 148.354 35.4649C148.585 35.0366 148.887 34.7083 149.283 34.4832C149.681 34.2569 150.205 34.1172 150.905 34.1172Z" fill="white" stroke="#132528"/>
<path d="M149.062 34.1172H151.21C152.599 34.1172 153.685 34.6676 154.433 35.5508C155.187 36.4423 155.618 37.702 155.618 39.1393V63.9888C155.618 65.4262 155.187 66.6859 154.433 67.5773C153.685 68.4605 152.599 69.0109 151.21 69.0109H149.062C146.27 69.0109 144.04 66.7805 144.04 63.9888V39.1393C144.04 36.3476 146.27 34.1172 149.062 34.1172Z" fill="white" stroke="#132528"/>
<path d="M155.7 67.0598C155.7 66.5211 155.836 65.9971 156.054 65.6244C156.275 65.2447 156.523 65.1055 156.734 65.1055C156.946 65.1055 157.193 65.2447 157.414 65.6244C157.632 65.9971 157.768 66.5211 157.768 67.0598C157.768 67.5984 157.632 68.1224 157.414 68.4951C157.193 68.8748 156.946 69.014 156.734 69.014C156.468 69.014 156.233 68.8916 156.044 68.5937C155.843 68.2786 155.7 67.769 155.7 67.0598Z" fill="white" stroke="#132528"/>
<path d="M156.423 68.4086V64.5H157.457C157.668 64.5 157.916 64.6392 158.137 65.0189C158.354 65.3916 158.491 65.9156 158.491 66.4543C158.491 66.9929 158.354 67.5169 158.137 67.8897C157.916 68.2693 157.668 68.4086 157.457 68.4086H156.423Z" fill="white" stroke="#132528"/>
<path d="M155.501 66.4597C155.501 66.0428 155.572 65.758 155.665 65.5957C155.742 65.4605 155.819 65.4258 155.921 65.4258C155.941 65.4258 156.041 65.439 156.164 65.6863C156.279 65.9158 156.342 66.2213 156.342 66.4597C156.342 66.8766 156.27 67.1614 156.177 67.3237C156.111 67.4408 156.045 67.4825 155.961 67.4916C155.955 67.4879 155.948 67.4829 155.939 67.4765C155.889 67.4411 155.822 67.3771 155.753 67.2812C155.617 67.0908 155.501 66.8077 155.501 66.4597ZM155.981 67.5018C155.981 67.5019 155.98 67.5016 155.979 67.5011L155.981 67.5018Z" fill="white" stroke="#132528"/>
<path d="M143.964 57.3635H139.249C135.23 57.3635 132.079 54.2127 132.079 50.1939V48.3532C132.079 44.3344 135.23 41.1836 139.249 41.1836H143.964V57.3635Z" fill="white" stroke="#132528"/>
<path d="M151.825 35.4688H138.019C137.099 35.4688 136.485 36.0823 136.485 37.0027C136.485 37.923 137.099 38.5366 138.019 38.5366H151.825C152.745 38.5366 153.358 37.923 153.358 37.0027C153.052 36.0823 152.438 35.4688 151.825 35.4688Z" fill="#053588"/>
<path d="M144.766 40.8672H150.901C151.342 40.8672 151.752 41.0878 152.065 41.4321C152.384 41.7832 152.549 42.2049 152.549 42.5147V55.3996C152.549 56.3506 151.852 57.0471 150.901 57.0471H144.766C143.815 57.0471 143.118 56.3506 143.118 55.3996V42.5147C143.118 41.5637 143.815 40.8672 144.766 40.8672Z" fill="white" stroke="#132528"/>
<path d="M149.064 45.2812C148.757 45.2812 147.837 45.2812 147.53 45.2812C145.689 45.2812 144.462 46.8152 144.462 48.9626C144.462 51.1101 145.996 52.6441 147.53 52.6441C147.837 52.6441 148.757 52.6441 149.064 52.6441C150.904 52.6441 152.132 51.1101 152.132 48.9626C152.132 47.1219 150.904 45.2812 149.064 45.2812Z" fill="#053588"/>
<path d="M147.724 48.96C147.724 47.9581 148.468 47.3125 149.064 47.3125C149.66 47.3125 150.405 47.9581 150.405 48.96C150.405 49.9618 149.66 50.6075 149.064 50.6075C148.468 50.6075 147.724 49.9618 147.724 48.96Z" fill="white" stroke="#132528"/>
<path d="M131.886 34.1172H135.26C138.003 34.1172 139.986 36.3 140.282 39.1647V63.9888C140.282 66.7805 138.052 69.0109 135.26 69.0109H131.886C131.185 69.0109 130.661 68.8713 130.263 68.6449C129.867 68.4198 129.565 68.0915 129.335 67.6633C128.861 66.7833 128.704 65.5118 128.704 63.9888V39.1393C128.704 37.6163 128.861 36.3448 129.335 35.4649C129.565 35.0366 129.867 34.7083 130.263 34.4832C130.661 34.2569 131.185 34.1172 131.886 34.1172Z" fill="white" stroke="#132528"/>
<path d="M130.047 34.1172H132.194C133.583 34.1172 134.67 34.6676 135.417 35.5508C136.171 36.4423 136.603 37.702 136.603 39.1393V63.9888C136.603 65.4262 136.171 66.6859 135.417 67.5773C134.67 68.4605 133.583 69.0109 132.194 69.0109H130.047C127.255 69.0109 125.024 66.7805 125.024 63.9888V39.1393C125.024 36.3476 127.255 34.1172 130.047 34.1172Z" fill="white" stroke="#132528"/>
<path d="M130.964 43.4375H127.589C125.135 43.4375 123.294 45.8918 123.294 49.2664C123.294 52.3342 125.135 55.0953 127.589 55.0953H130.964C133.418 55.0953 135.259 52.641 135.259 49.2664C135.259 45.8918 133.418 43.4375 130.964 43.4375Z" fill="#053588"/>
<path d="M125.024 48.9569C125.024 47.9996 125.367 47.1109 125.876 46.4674C126.39 45.8157 127.026 45.4688 127.592 45.4688C128.328 45.4688 128.955 45.831 129.414 46.4541C129.878 47.0841 130.16 47.973 130.16 48.9569C130.16 49.9143 129.817 50.803 129.309 51.4465C128.794 52.0982 128.159 52.4451 127.592 52.4451C126.857 52.4451 126.23 52.0828 125.771 51.4597C125.306 50.8297 125.024 49.9408 125.024 48.9569Z" fill="white" stroke="#132528"/>
<path d="M156.266 67.5301L156.275 67.5571L156.288 67.5828C156.513 68.0318 156.449 68.4421 156.221 68.7465C155.984 69.0616 155.53 69.3135 154.895 69.3135H145.385H143.851H141.09C140.739 69.3135 140.34 69.0377 140.08 68.5161C139.827 68.0104 139.785 67.4213 139.995 66.985L140.905 65.469L140.976 65.3502V65.2117L140.976 65.2117C140.976 65.211 140.976 65.1976 140.982 65.1641C140.987 65.1304 140.996 65.0897 141.008 65.0351C141.01 65.0227 141.013 65.0096 141.016 64.9959C141.038 64.8973 141.066 64.768 141.086 64.6305C141.131 64.319 141.14 63.9104 140.94 63.4887L140.343 61.6985C140.123 60.7726 140.828 59.8828 141.703 59.8828H152.441C153.096 59.8828 153.563 60.308 153.822 60.8092L156.266 67.5301Z" fill="white" stroke="#132528"/>
<path d="M155.48 66.761L153.333 60.9321C153.026 60.3185 152.412 60.0117 151.799 60.0117H142.595C141.675 60.0117 140.754 60.9321 141.061 62.1592L143.209 67.9881C143.515 68.6017 144.129 68.9085 144.743 68.9085H153.946C155.173 68.6017 155.787 67.6813 155.48 66.761Z" fill="#053588"/>
<mask id="path-57-inside-4_4037_145613" fill="white">
<path fill-rule="evenodd" clip-rule="evenodd" d="M91.9627 78.8706C91.744 78.4704 91.565 78.0441 91.4313 77.5984L86.2159 58.5778C85.2956 55.2032 87.4431 52.1353 90.5109 51.215C93.8855 50.2946 96.9534 52.4421 97.8737 55.5099L103.089 74.5306C103.164 74.8036 103.218 75.0745 103.253 75.3425C103.71 75.329 104.17 75.3661 104.623 75.4568L123.951 80.0585C127.325 80.6721 129.166 84.0467 128.552 87.1146C127.939 90.4892 124.564 92.3299 121.496 91.7163L105.237 87.8451V88.0272L98.4878 86.4933C95.42 85.5729 93.2725 83.4254 92.3522 80.3576L91.9627 78.8706Z"/>
</mask>
<path fill-rule="evenodd" clip-rule="evenodd" d="M91.9627 78.8706C91.744 78.4704 91.565 78.0441 91.4313 77.5984L86.2159 58.5778C85.2956 55.2032 87.4431 52.1353 90.5109 51.215C93.8855 50.2946 96.9534 52.4421 97.8737 55.5099L103.089 74.5306C103.164 74.8036 103.218 75.0745 103.253 75.3425C103.71 75.329 104.17 75.3661 104.623 75.4568L123.951 80.0585C127.325 80.6721 129.166 84.0467 128.552 87.1146C127.939 90.4892 124.564 92.3299 121.496 91.7163L105.237 87.8451V88.0272L98.4878 86.4933C95.42 85.5729 93.2725 83.4254 92.3522 80.3576L91.9627 78.8706Z" fill="white"/>
<path d="M91.9627 78.8706L92.9301 78.6173L92.899 78.4987L92.8403 78.3911L91.9627 78.8706ZM91.4313 77.5984L90.4669 77.8628L90.47 77.8743L90.4734 77.8858L91.4313 77.5984ZM86.2159 58.5778L85.2512 58.8409L85.2515 58.8422L86.2159 58.5778ZM90.5109 51.215L90.2478 50.2502L90.2356 50.2535L90.2236 50.2571L90.5109 51.215ZM97.8737 55.5099L98.8381 55.2455L98.835 55.234L98.8316 55.2226L97.8737 55.5099ZM103.089 74.5306L104.054 74.2675L104.053 74.2661L103.089 74.5306ZM103.253 75.3425L102.262 75.4736L102.38 76.3688L103.283 76.3421L103.253 75.3425ZM104.623 75.4568L104.855 74.4839L104.837 74.4797L104.819 74.4762L104.623 75.4568ZM123.951 80.0585L123.719 81.0313L123.745 81.0376L123.772 81.0424L123.951 80.0585ZM128.552 87.1146L127.572 86.9184L127.57 86.927L127.568 86.9357L128.552 87.1146ZM121.496 91.7163L121.265 92.6891L121.282 92.6933L121.3 92.6969L121.496 91.7163ZM105.237 87.8451L105.469 86.8723L104.237 86.579V87.8451H105.237ZM105.237 88.0272L105.015 89.0023L106.237 89.2799V88.0272H105.237ZM98.4878 86.4933L98.2005 87.4511L98.2331 87.4609L98.2662 87.4684L98.4878 86.4933ZM92.3522 80.3576L91.3848 80.6109L91.3893 80.628L91.3943 80.6449L92.3522 80.3576ZM92.8403 78.3911C92.6547 78.0515 92.5026 77.6896 92.3891 77.3111L90.4734 77.8858C90.6273 78.3987 90.8334 78.8893 91.0852 79.3501L92.8403 78.3911ZM92.3957 77.334L87.1803 58.3134L85.2515 58.8422L90.4669 77.8628L92.3957 77.334ZM87.1807 58.3147C86.4254 55.5454 88.1647 52.9629 90.7983 52.1728L90.2236 50.2571C86.7215 51.3078 84.1657 54.861 85.2512 58.8409L87.1807 58.3147ZM90.774 52.1797C93.5434 51.4245 96.1258 53.1637 96.9159 55.7973L98.8316 55.2226C97.7809 51.7205 94.2277 49.1648 90.2478 50.2502L90.774 52.1797ZM96.9093 55.7744L102.125 74.795L104.053 74.2661L98.8381 55.2455L96.9093 55.7744ZM102.124 74.7937C102.187 75.0238 102.232 75.2507 102.262 75.4736L104.245 75.2115C104.203 74.8984 104.14 74.5833 104.054 74.2675L102.124 74.7937ZM103.283 76.3421C103.666 76.3308 104.05 76.3619 104.427 76.4373L104.819 74.4762C104.29 74.3703 103.754 74.3273 103.224 74.343L103.283 76.3421ZM104.392 76.4296L123.719 81.0313L124.182 79.0857L104.855 74.4839L104.392 76.4296ZM123.772 81.0424C126.517 81.5415 128.092 84.3161 127.572 86.9184L129.533 87.3107C130.24 83.7774 128.134 79.8027 124.129 79.0746L123.772 81.0424ZM127.568 86.9357C127.069 89.6805 124.295 91.2562 121.692 90.7357L121.3 92.6969C124.833 93.4036 128.808 91.2978 129.536 87.2934L127.568 86.9357ZM121.728 90.7435L105.469 86.8723L105.005 88.8179L121.265 92.6891L121.728 90.7435ZM106.237 88.0272V87.8451H104.237V88.0272H106.237ZM98.2662 87.4684L105.015 89.0023L105.459 87.052L98.7095 85.5181L98.2662 87.4684ZM91.3943 80.6449C92.4113 84.0347 94.8107 86.4341 98.2005 87.4511L98.7752 85.5354C96.0293 84.7117 94.1337 82.8161 93.31 80.0702L91.3943 80.6449ZM90.9954 79.124L91.3848 80.6109L93.3195 80.1042L92.9301 78.6173L90.9954 79.124Z" fill="#132528" mask="url(#path-57-inside-4_4037_145613)"/>
<path d="M144.456 143.766H140.774V148.367H144.456V143.766Z" fill="#132528"/>
<path d="M122.372 143.766H113.782V148.367H122.372V143.766Z" fill="#132528"/>
<path d="M171.15 143.766H162.56V148.367H171.15V143.766Z" fill="#132528"/>
</svg>
