<svg width="211" height="170" viewBox="0 0 211 170" fill="none" xmlns="http://www.w3.org/2000/svg">
<circle opacity="0.2" cx="97.3643" cy="85" r="85" fill="#DAE7EA"/>
<path d="M123.329 141.854H3.09229C2.93774 135.827 14.9923 133.2 30.1377 135.982C29.2105 134.127 28.9014 132.427 29.365 130.727C30.9105 123.618 44.8196 122.073 60.5832 127.327C62.7468 128.1 64.7559 128.873 66.765 129.8C66.9196 128.564 67.2287 127.791 67.8468 127.482C68.7741 127.018 70.0105 128.409 70.9378 130.573C71.7105 127.018 73.4105 123.464 74.9559 122.382C76.5014 121.3 77.2741 123.309 76.6559 127.018C76.5014 128.1 76.1923 129.336 75.7287 130.418C79.7468 127.018 86.3923 123.773 96.7468 127.791C96.7468 127.791 87.6287 129.027 77.8923 133.045C79.9014 132.891 82.065 133.354 82.6832 136.136L75.8832 134.9C78.5105 136.754 80.8287 138.764 82.6832 140.618C85.465 139.845 88.2468 139.227 91.3378 138.918C104.32 136.909 116.683 138.3 123.329 141.854Z" fill="#053588"/>
<path d="M87.7828 42.4989H0.000976562C1.70098 38.1717 7.57371 34.7717 13.601 34.7717C17.001 34.7717 19.7828 35.8535 21.3283 37.5535C25.6555 27.6626 34.3101 20.0898 42.1919 20.0898C48.3737 20.0898 52.5464 24.5717 53.4737 31.2171C54.5555 30.5989 55.7919 30.4444 56.8737 30.4444C60.7373 30.4444 63.0555 34.1535 62.7464 38.9444C65.8373 38.0171 69.2374 37.5535 72.7919 37.5535C79.7464 37.5535 85.1555 39.5626 87.7828 42.4989Z" fill="white"/>
<path d="M201.064 142.104H88.0908C92.5726 139.323 98.2908 137.313 104.473 136.541C112.818 135.459 120.391 136.695 125.491 139.477C126.727 137.623 128.118 135.768 129.973 134.223C129.664 133.759 129.509 133.141 129.354 132.523C128.427 129.586 128.427 127.113 129.509 126.959C130.127 126.959 130.9 127.577 131.673 128.813C131.827 128.041 132.136 127.268 132.445 126.341C133.991 122.632 136.773 119.541 138.473 119.232C140.327 119.077 140.482 121.859 138.782 125.568C138.164 126.959 137.391 128.35 136.618 129.432C139.091 128.041 141.718 127.113 144.5 126.341C156.245 123.404 165.673 128.195 165.364 137.004C165.364 137.623 165.209 138.241 165.054 139.013C166.909 138.241 168.918 137.468 171.082 137.159C171.082 135.15 172.164 132.059 174.482 128.504C178.809 121.55 185.764 115.213 189.936 114.441C194.109 113.668 193.954 118.768 189.627 125.723C188.545 127.423 187.464 128.968 186.227 130.513C188.545 130.05 190.709 130.05 191.791 130.513C193.8 131.441 192.254 133.604 188.236 135.459C187 136.077 185.764 136.386 184.527 136.85C186.073 137.004 187.773 137.313 189.318 137.777C193.8 138.55 197.818 140.095 201.064 142.104Z" fill="#053588"/>
<path d="M108.981 95.6118L118.685 135.075L107.253 137.886L97.5486 98.4231L108.981 95.6118Z" fill="white" stroke="#132528"/>
<mask id="path-6-inside-1_4037_145835" fill="white">
<path fill-rule="evenodd" clip-rule="evenodd" d="M95.96 75.8242C88.5521 75.8242 82.6768 81.6995 82.6768 89.1075C82.6768 89.6099 82.7038 90.1052 82.7565 90.5921C81.6427 91.5425 80.86 92.8802 80.6328 94.4704L78.3338 110.053C78.3042 110.245 78.284 110.437 78.2729 110.629C76.8948 111.305 75.7702 112.508 75.2664 114.145L70.1575 130.749C69.4812 133.003 70.3964 135.655 72.5519 136.774C72.6065 136.807 72.662 136.84 72.7181 136.871C75.2726 138.148 78.338 137.382 79.8707 135.083L85.6368 125.363L90.3383 117.975C90.8492 116.953 91.3601 115.931 91.6155 114.654L93.9146 103.414C93.9146 103.414 93.9062 103.417 93.8901 103.423L94.2564 102.286C94.8136 102.355 95.3822 102.391 95.96 102.391C103.368 102.391 109.243 96.5154 109.243 89.1075C109.243 81.6995 103.368 75.8242 95.96 75.8242Z"/>
</mask>
<path fill-rule="evenodd" clip-rule="evenodd" d="M95.96 75.8242C88.5521 75.8242 82.6768 81.6995 82.6768 89.1075C82.6768 89.6099 82.7038 90.1052 82.7565 90.5921C81.6427 91.5425 80.86 92.8802 80.6328 94.4704L78.3338 110.053C78.3042 110.245 78.284 110.437 78.2729 110.629C76.8948 111.305 75.7702 112.508 75.2664 114.145L70.1575 130.749C69.4812 133.003 70.3964 135.655 72.5519 136.774C72.6065 136.807 72.662 136.84 72.7181 136.871C75.2726 138.148 78.338 137.382 79.8707 135.083L85.6368 125.363L90.3383 117.975C90.8492 116.953 91.3601 115.931 91.6155 114.654L93.9146 103.414C93.9146 103.414 93.9062 103.417 93.8901 103.423L94.2564 102.286C94.8136 102.355 95.3822 102.391 95.96 102.391C103.368 102.391 109.243 96.5154 109.243 89.1075C109.243 81.6995 103.368 75.8242 95.96 75.8242Z" fill="white"/>
<path d="M82.7565 90.5921L83.4056 91.3528L83.8075 91.0099L83.7507 90.4846L82.7565 90.5921ZM80.6328 94.4704L81.6221 94.6164L81.6228 94.6118L80.6328 94.4704ZM78.3338 110.053L79.3222 110.205L79.3231 110.199L78.3338 110.053ZM78.2729 110.629L78.7134 111.527L79.2376 111.269L79.2713 110.687L78.2729 110.629ZM75.2664 114.145L76.2222 114.439L75.2664 114.145ZM70.1575 130.749L69.2017 130.455L69.1997 130.461L70.1575 130.749ZM72.5519 136.774L73.0724 135.92L73.0431 135.902L73.0126 135.886L72.5519 136.774ZM72.7181 136.871L72.2325 137.745L72.2515 137.755L72.2709 137.765L72.7181 136.871ZM79.8707 135.083L80.7027 135.637L80.7173 135.615L80.7307 135.593L79.8707 135.083ZM85.6368 125.363L84.7932 124.826L84.7848 124.839L84.7768 124.852L85.6368 125.363ZM90.3383 117.975L91.1819 118.511L91.2096 118.468L91.2327 118.422L90.3383 117.975ZM91.6155 114.654L90.6358 114.453L90.6349 114.458L91.6155 114.654ZM93.9146 103.414L94.8943 103.614L95.2535 101.858L93.5703 102.475L93.9146 103.414ZM93.8901 103.423L92.9383 103.117L92.3094 105.069L94.235 104.362L93.8901 103.423ZM94.2564 102.286L94.3801 101.293L93.5584 101.191L93.3046 101.979L94.2564 102.286ZM83.6768 89.1075C83.6768 82.2518 89.1044 76.8242 95.96 76.8242V74.8242C87.9998 74.8242 81.6768 81.1472 81.6768 89.1075H83.6768ZM83.7507 90.4846C83.7018 90.0334 83.6768 89.574 83.6768 89.1075H81.6768C81.6768 89.6457 81.7057 90.177 81.7623 90.6997L83.7507 90.4846ZM81.6228 94.6118C81.8145 93.27 82.4713 92.15 83.4056 91.3528L82.1074 89.8315C80.8141 90.935 79.9055 92.4904 79.6429 94.329L81.6228 94.6118ZM79.3231 110.199L81.6221 94.6164L79.6435 94.3244L77.3445 109.907L79.3231 110.199ZM79.2713 110.687C79.2806 110.526 79.2974 110.365 79.3221 110.205L77.3454 109.901C77.311 110.124 77.2875 110.348 77.2746 110.571L79.2713 110.687ZM76.2222 114.439C76.6395 113.082 77.5664 112.089 78.7134 111.527L77.8325 109.731C76.2232 110.521 74.9008 111.933 74.3107 113.851L76.2222 114.439ZM71.1133 131.043L76.2222 114.439L74.3107 113.851L69.2017 130.455L71.1133 131.043ZM73.0126 135.886C71.3375 135.017 70.5589 132.891 71.1153 131.036L69.1997 130.461C68.4036 133.115 69.4553 136.293 72.0912 137.662L73.0126 135.886ZM73.2038 135.997C73.1594 135.972 73.1157 135.946 73.0724 135.92L72.0313 137.628C72.0974 137.668 72.1645 137.707 72.2325 137.745L73.2038 135.997ZM79.0386 134.528C77.8 136.386 75.2922 137.04 73.1654 135.976L72.2709 137.765C75.2531 139.256 78.876 138.377 80.7027 135.637L79.0386 134.528ZM84.7768 124.852L79.0106 134.572L80.7307 135.593L86.4969 125.873L84.7768 124.852ZM89.4946 117.438L84.7932 124.826L86.4805 125.899L91.1819 118.511L89.4946 117.438ZM90.6349 114.458C90.4092 115.586 89.9592 116.497 89.4438 117.527L91.2327 118.422C91.7391 117.409 92.3109 116.276 92.5961 114.85L90.6349 114.458ZM92.9348 103.214L90.6358 114.453L92.5952 114.854L94.8943 103.614L92.9348 103.214ZM94.235 104.362C94.243 104.359 94.249 104.357 94.2529 104.355C94.2549 104.354 94.2564 104.354 94.2574 104.353C94.2579 104.353 94.2583 104.353 94.2585 104.353C94.2586 104.353 94.2587 104.353 94.2587 104.353C94.2588 104.353 94.2588 104.353 94.2588 104.353C94.2588 104.353 94.2588 104.353 94.2588 104.353C94.2588 104.353 94.2588 104.353 94.2588 104.353V104.353C94.2588 104.353 94.2588 104.353 93.9146 103.414C93.5703 102.475 93.5703 102.475 93.5703 102.475C93.5703 102.475 93.5703 102.475 93.5703 102.475C93.5703 102.475 93.5703 102.475 93.5703 102.475C93.5703 102.475 93.5703 102.475 93.5703 102.475C93.5703 102.475 93.5703 102.475 93.5703 102.475C93.5702 102.475 93.5702 102.475 93.5702 102.475C93.5701 102.475 93.57 102.475 93.5698 102.475C93.5695 102.475 93.5691 102.476 93.5686 102.476C93.5675 102.476 93.5659 102.477 93.5638 102.478C93.5596 102.479 93.5534 102.481 93.5452 102.484L94.235 104.362ZM93.3046 101.979L92.9383 103.117L94.842 103.73L95.2083 102.592L93.3046 101.979ZM95.96 101.391C95.4234 101.391 94.8962 101.358 94.3801 101.293L94.1328 103.278C94.731 103.352 95.3409 103.391 95.96 103.391V101.391ZM108.243 89.1075C108.243 95.9631 102.816 101.391 95.96 101.391V103.391C103.92 103.391 110.243 97.0677 110.243 89.1075H108.243ZM95.96 76.8242C102.816 76.8242 108.243 82.2518 108.243 89.1075H110.243C110.243 81.1472 103.92 74.8242 95.96 74.8242V76.8242Z" fill="#132528" mask="url(#path-6-inside-1_4037_145835)"/>
<mask id="path-8-inside-2_4037_145835" fill="white">
<path fill-rule="evenodd" clip-rule="evenodd" d="M117.929 57.9386L130.701 66.8792C131.285 67.3169 131.743 67.8586 132.071 68.4628C132.604 68.988 133.017 69.6608 133.257 70.4581L138.366 85.5295C139.387 88.084 137.855 90.6384 135.045 91.4048C132.746 91.9157 130.447 90.6384 129.68 88.3394L125.013 74.5717L112.564 65.8575C110.265 64.3248 109.755 61.2594 111.287 59.2158C112.82 56.9168 115.885 56.4059 117.929 57.9386Z"/>
</mask>
<path fill-rule="evenodd" clip-rule="evenodd" d="M117.929 57.9386L130.701 66.8792C131.285 67.3169 131.743 67.8586 132.071 68.4628C132.604 68.988 133.017 69.6608 133.257 70.4581L138.366 85.5295C139.387 88.084 137.855 90.6384 135.045 91.4048C132.746 91.9157 130.447 90.6384 129.68 88.3394L125.013 74.5717L112.564 65.8575C110.265 64.3248 109.755 61.2594 111.287 59.2158C112.82 56.9168 115.885 56.4059 117.929 57.9386Z" fill="white"/>
<path d="M130.701 66.8792L131.301 66.0792L131.288 66.0694L131.275 66.06L130.701 66.8792ZM117.929 57.9386L117.329 58.7386L117.342 58.7484L117.355 58.7578L117.929 57.9386ZM132.071 68.4628L131.192 68.9395L131.263 69.0706L131.369 69.1753L132.071 68.4628ZM133.257 70.4581L132.299 70.7455L132.304 70.7624L132.31 70.7792L133.257 70.4581ZM138.366 85.5295L137.418 85.8505L137.427 85.8759L137.437 85.9009L138.366 85.5295ZM135.045 91.4048L135.262 92.381L135.285 92.3758L135.308 92.3695L135.045 91.4048ZM129.68 88.3394L130.629 88.0232L130.627 88.0184L129.68 88.3394ZM125.013 74.5717L125.96 74.2506L125.855 73.9403L125.587 73.7524L125.013 74.5717ZM112.564 65.8575L113.138 65.0382L113.129 65.0317L113.119 65.0254L112.564 65.8575ZM111.287 59.2158L112.087 59.8158L112.104 59.7936L112.119 59.7705L111.287 59.2158ZM131.275 66.06L118.502 57.1194L117.355 58.7578L130.128 67.6985L131.275 66.06ZM132.95 67.9861C132.555 67.2573 132.002 66.6047 131.301 66.0792L130.101 67.6792C130.568 68.0291 130.932 68.4598 131.192 68.9395L132.95 67.9861ZM131.369 69.1753C131.78 69.5803 132.107 70.1061 132.299 70.7455L134.214 70.1708C133.928 69.2156 133.428 68.3956 132.773 67.7504L131.369 69.1753ZM132.31 70.7792L137.418 85.8505L139.313 85.2084L134.204 70.1371L132.31 70.7792ZM137.437 85.9009C138.193 87.7914 137.135 89.7982 134.782 90.44L135.308 92.3695C138.574 91.4787 140.581 88.3765 139.294 85.1581L137.437 85.9009ZM134.828 90.4286C133.03 90.8282 131.234 89.8367 130.629 88.0232L128.732 88.6556C129.66 91.4402 132.462 93.0032 135.262 92.381L134.828 90.4286ZM130.627 88.0184L125.96 74.2506L124.066 74.8927L128.733 88.6605L130.627 88.0184ZM111.991 66.6767L124.44 75.3909L125.587 73.7524L113.138 65.0382L111.991 66.6767ZM110.487 58.6158C108.596 61.138 109.253 64.8519 112.01 66.6895L113.119 65.0254C111.277 63.7976 110.913 61.3808 112.087 59.8158L110.487 58.6158ZM118.529 57.1386C116.007 55.247 112.293 55.9048 110.455 58.6611L112.119 59.7705C113.347 57.9288 115.764 57.5649 117.329 58.7386L118.529 57.1386Z" fill="#132528" mask="url(#path-8-inside-2_4037_145835)"/>
<path d="M111.286 53.0938L114.096 53.3492C116.14 53.6046 117.723 54.9673 119 56.5L116.906 56.67L111.286 53.0938Z" fill="#DAE7EA"/>
<path d="M88.81 54.6235C89.0654 52.3245 91.109 50.7918 93.408 51.0473L112.567 53.6018C114.866 53.8572 116.398 55.9008 116.143 58.1998C115.887 60.4988 113.844 62.0315 111.545 61.7761L92.3862 59.2216C90.0872 58.9662 88.5545 56.9226 88.81 54.6235Z" fill="#DAE7EA"/>
<path d="M115.885 68.6764L107.455 82.726L98.2588 67.3992L98.5143 64.8447L112.053 58.2031L115.885 68.6764Z" fill="#132528"/>
<path d="M85.4843 83.4861L82.4189 57.9414L88.8051 58.4523L90.5932 77.8663L85.4843 83.4861Z" fill="#77C9FF"/>
<path d="M119.206 59.9842C118.184 58.7069 116.652 57.6852 114.863 57.6852L102.602 56.1525L90.8514 54.6198C87.2752 54.1089 84.2098 56.6634 83.6989 60.2396C83.4434 62.0278 83.9543 63.5604 84.9761 64.8377C85.9979 66.1149 87.5306 67.1367 89.3187 67.1367L112.053 69.9466L113.331 70.202C116.907 70.7129 119.972 68.1585 120.483 64.5822C120.483 62.7941 119.972 61.2614 119.206 59.9842Z" fill="white"/>
<path d="M111.031 73.2681L110.52 69.4364C110.009 66.1155 108.476 63.3056 105.922 61.262C103.367 59.2185 100.302 58.4521 96.9813 58.7076C90.3396 59.4739 85.4861 65.6046 86.2525 72.2463L87.7851 85.0186C87.7851 85.5295 88.0406 85.785 88.0406 86.2959C89.3178 92.1711 95.1931 96.5137 101.324 95.7474C107.455 94.981 112.053 89.6167 112.053 83.4859C112.053 82.975 112.053 82.7196 112.053 82.2087L111.286 75.5671L111.031 74.0344V73.2681Z" fill="white"/>
<path d="M107.198 111.844H112.818C114.862 111.844 116.394 113.376 116.394 115.42C116.394 117.464 114.862 118.996 112.818 118.996H107.198C105.155 118.996 103.622 117.464 103.622 115.42C103.878 113.376 105.41 111.844 107.198 111.844Z" fill="#9BA5BE"/>
<path d="M110.008 113.633H112.562C114.095 113.633 114.606 114.144 114.606 114.91C114.606 115.676 114.095 116.187 113.329 116.187H110.774C110.008 116.187 109.497 115.676 109.497 114.91C109.497 114.144 110.008 113.633 110.008 113.633Z" fill="#132528"/>
<path d="M96.9796 53.0835C95.4469 52.828 93.9142 54.1053 93.6587 55.638L93.4033 57.6815L107.197 59.4697L107.708 54.6162L96.9796 53.0835Z" fill="#DAE7EA"/>
<path d="M111.032 76.8454L97.4932 73.0137L99.2813 59.7305L108.988 62.2849C111.798 63.0513 113.586 65.8612 112.82 68.6711L111.032 76.8454Z" fill="white"/>
<path d="M118.696 96.002L120.229 59.2176C120.229 56.9186 118.441 54.875 116.142 54.875C113.843 54.875 111.799 56.6631 111.799 58.9622L110.267 95.7465C110.267 98.0455 112.055 100.089 114.354 100.089C116.653 100.345 118.696 98.5565 118.696 96.002Z" fill="#DAE7EA"/>
<path d="M79.3576 87.8293L82.6784 55.8984C82.9339 52.8331 85.7438 50.7895 88.8092 51.0449C91.8745 51.3004 93.9181 54.1103 93.6626 57.1757L90.0864 88.8511C89.831 91.9165 87.021 93.9601 83.9556 93.7046C81.1457 93.4492 78.8467 90.8947 79.3576 87.8293Z" fill="#DAE7EA"/>
<path d="M110.519 56.4093L108.476 56.1538C106.943 55.8984 105.41 57.1756 105.155 58.7083C104.899 60.241 106.177 61.7736 107.709 62.0291L109.753 62.2845C111.286 62.54 112.818 61.2627 113.074 59.7301C113.329 58.1974 112.307 56.6647 110.519 56.4093Z" fill="#132528"/>
<path d="M105.41 66.8813H101.323C98.0023 66.8813 95.1924 64.0714 95.1924 60.7506V58.707H111.541V60.7506C111.541 64.0714 108.731 66.8813 105.41 66.8813Z" fill="#132528"/>
<path d="M98.2471 56.1498V45.4102H108.998V56.1498C108.998 59.1945 106.667 61.5251 103.622 61.5251C100.592 61.5251 98.2471 58.9532 98.2471 56.1498Z" fill="white" stroke="#132528"/>
<path d="M98.5133 44.6602C99.7905 44.6602 100.557 45.682 100.557 46.7037V46.9592C100.557 48.2364 99.5351 49.0028 98.5133 49.0028C97.2361 49.0028 96.4697 47.981 96.4697 46.9592V46.7037C96.4697 45.682 97.4915 44.6602 98.5133 44.6602Z" fill="#132528"/>
<path d="M93.915 59.9883H100.557L101.323 66.8854H93.915V59.9883Z" fill="#132528"/>
<path d="M98.2586 36.9922C99.7913 36.9922 101.324 38.014 101.324 39.5467L101.579 44.1447C101.579 45.6774 100.558 47.2101 99.0249 47.2101C97.4922 47.2101 95.9596 46.1883 95.9596 44.6556L95.7041 40.0576C95.7041 38.5249 96.7259 36.9922 98.2586 36.9922Z" fill="#132528"/>
<path d="M78.5878 94.4678L80.6314 74.543L84.974 76.5865L83.6968 98.8104H82.4195C80.1205 98.8104 78.3324 96.7668 78.5878 94.4678Z" fill="#DAE7EA"/>
<path d="M115.899 48.1665L115.895 48.2002V48.2341C115.895 48.9129 115.663 49.8359 115.212 50.5112L115.183 50.5545L115.164 50.6029C114.69 51.7885 113.729 52.9912 112.778 53.7059C111.072 54.923 108.896 55.6398 106.743 55.4006C104.588 55.1611 102.657 53.9581 101.452 52.512L101.452 52.512L101.447 52.5067C100.004 50.8222 99.2924 48.6763 99.77 46.2886L99.773 46.2734L99.7751 46.2581L100.541 40.6382L100.542 40.6306L100.543 40.623C101.024 36.0604 105.105 32.9215 109.699 33.4044C113.997 33.8828 117.145 37.9539 116.665 42.5544L115.899 48.1665Z" fill="white" stroke="#132528"/>
<path d="M126.102 141.221C126.102 141.987 125.591 142.498 124.824 142.498H106.177V141.221V136.623C106.177 135.601 106.943 134.834 107.965 134.579L110.775 134.068C112.307 133.813 113.84 132.791 114.606 131.258C115.117 130.492 115.884 129.725 116.65 129.47C118.438 129.215 119.971 130.492 119.971 132.28V135.856C119.971 136.623 119.715 137.133 119.205 137.644V140.199H124.824C125.591 139.943 126.102 140.454 126.102 141.221Z" fill="#132528"/>
<path d="M120.224 135.602C117.67 135.602 115.626 137.645 115.626 140.2H124.822C124.822 137.39 122.779 135.602 120.224 135.602Z" fill="#9BA5BE"/>
<path d="M133.255 86.0352H135.555C136.576 86.0352 137.598 86.8015 137.598 88.0787C137.598 89.1005 136.832 90.1223 135.555 90.1223H133.255C132.234 90.1223 131.212 89.356 131.212 88.0787C131.212 86.8015 131.978 86.0352 133.255 86.0352Z" fill="#132528"/>
<path d="M100.046 55.6452L96.7256 55.1343C95.1929 54.8788 93.6602 56.1561 93.4048 57.6887C93.1493 59.2214 94.4266 60.7541 95.9593 61.0095L99.28 61.5204C100.813 61.7759 102.345 60.4987 102.601 58.966C102.856 57.1779 101.579 55.6452 100.046 55.6452Z" fill="#132528"/>
<path d="M109.241 79.6553L95.7024 77.8672C95.1915 77.8672 94.9361 78.1226 94.6807 78.6335C94.6807 79.1444 94.9361 79.3999 95.447 79.6553L108.986 81.4434C109.497 81.4434 109.752 81.188 110.007 80.6771C110.007 79.9108 109.752 79.6553 109.241 79.6553Z" fill="#9BA5BE"/>
<path d="M80.1229 93.4441L88.8081 54.3607C89.319 52.0616 91.618 50.529 93.917 51.0399C96.216 51.5507 97.7487 53.8498 97.2378 56.1488L88.5526 95.2322C88.0417 97.5312 85.7427 99.0639 83.4437 98.553C81.1447 98.0421 79.612 95.7431 80.1229 93.4441Z" fill="#DAE7EA"/>
<path d="M111.545 128.447V142.497H108.735V125.637C108.991 125.127 109.502 124.871 110.013 124.871C110.779 124.871 111.29 125.382 111.545 127.936C111.545 127.936 111.545 128.192 111.545 128.447Z" fill="#053588"/>
<path d="M134.535 88.5914C134.535 89.1023 134.279 89.6132 134.024 89.8686C133.769 90.1241 133.258 90.3795 132.747 90.3795H124.573C124.062 90.3795 123.295 90.635 122.784 90.8904C121.763 91.4013 120.485 90.8904 120.485 89.6132V88.3359H134.535V88.5914Z" fill="#053588"/>
<path d="M134.535 88.5944H120.485V88.0835C120.485 87.3171 121.252 86.5508 122.018 86.5508H132.747C133.769 86.5508 134.535 87.3171 134.535 88.5944Z" fill="#132528"/>
<path d="M103.626 102.384V103.406C103.626 103.661 103.37 103.917 102.86 103.917C102.604 103.917 102.349 104.172 102.349 104.428V105.45C102.349 105.705 102.604 105.961 102.86 105.961C103.115 105.961 103.626 106.216 103.626 106.471V107.493C103.626 107.749 103.37 108.004 102.86 108.004C102.604 108.004 102.349 108.26 102.349 108.77V109.792C102.349 110.048 102.604 110.303 102.86 110.303C103.115 110.303 103.626 110.559 103.626 110.814V111.836C103.626 112.091 103.37 112.347 102.86 112.347C102.604 112.347 102.349 112.602 102.349 112.858V113.879C102.349 114.135 102.604 114.39 102.86 114.39C103.115 114.39 103.626 114.646 103.626 114.901V115.923C103.626 116.178 103.37 116.434 102.86 116.434C102.604 116.434 102.349 116.689 102.349 116.945V118.733H114.866V116.945C114.866 116.689 114.61 116.434 114.355 116.434C114.099 116.434 113.844 116.178 113.844 115.923V114.901C113.844 114.646 114.099 114.39 114.355 114.39C114.61 114.39 114.866 114.135 114.866 113.879V114.39C114.866 114.135 114.61 113.879 114.355 113.879C114.099 113.879 113.844 113.624 113.844 113.368V111.836C113.844 111.58 114.099 111.325 114.355 111.325C114.61 111.325 114.866 111.069 114.866 110.814V109.792C114.866 109.537 114.61 109.026 114.355 109.026C114.099 109.026 113.844 108.77 113.844 108.515V107.493C113.844 107.238 114.099 106.982 114.355 106.982C114.61 106.982 114.866 106.727 114.866 106.471V105.45C114.866 105.194 114.61 104.939 114.355 104.939C114.099 104.939 113.844 104.683 113.844 104.428V103.406C113.844 103.151 114.099 102.895 114.355 102.895C114.61 102.895 114.866 102.64 114.866 102.384V100.852H102.349V102.384C102.349 102.64 102.604 102.895 102.86 102.895C103.37 101.618 103.626 101.873 103.626 102.384Z" fill="#132528"/>
<path d="M106.437 102.384V103.406C106.437 103.661 106.181 103.917 105.926 103.917C105.67 103.917 105.415 104.172 105.415 104.428V105.45C105.415 105.705 105.67 105.961 105.926 105.961C106.181 105.961 106.437 106.216 106.437 106.471V107.493C106.437 107.749 106.181 108.004 105.926 108.004C105.67 108.004 105.415 108.26 105.415 108.77V109.792C105.415 110.048 105.67 110.303 105.926 110.303C106.181 110.303 106.437 110.559 106.437 110.814V111.836C106.437 112.091 106.181 112.347 105.926 112.347C105.67 112.347 105.415 112.602 105.415 112.858V113.879C105.415 114.135 105.67 114.39 105.926 114.39C106.181 114.39 106.437 114.646 106.437 114.901V115.923C106.437 116.178 106.181 116.434 105.926 116.434C105.67 116.434 105.415 116.689 105.415 116.945V118.733H117.932V116.945C117.932 116.689 117.676 116.434 117.421 116.434C117.166 116.434 116.655 116.178 116.655 115.923V114.901C116.655 114.646 116.91 114.39 117.421 114.39C117.676 114.39 117.932 114.135 117.932 113.879V114.39C117.932 114.135 117.676 113.879 117.421 113.879C117.166 113.879 116.655 113.624 116.655 113.368V111.836C116.655 111.58 116.91 111.325 117.421 111.325C117.676 111.325 117.932 111.069 117.932 110.814V109.792C117.932 109.537 117.676 109.026 117.421 109.026C117.166 109.026 116.655 108.77 116.655 108.515V107.493C116.655 107.238 116.91 106.982 117.421 106.982C117.676 106.982 117.932 106.727 117.932 106.471V105.45C117.932 105.194 117.676 104.939 117.421 104.939C117.166 104.939 116.655 104.683 116.655 104.428V103.406C116.655 103.151 116.91 102.895 117.421 102.895C117.676 102.895 117.932 102.64 117.932 102.384V100.852H105.415V102.384C105.415 102.64 105.67 102.895 105.926 102.895C106.181 101.618 106.437 101.873 106.437 102.384Z" fill="#132528"/>
<path d="M108.99 101.871H113.333C113.843 101.871 114.099 102.382 114.099 102.637C114.099 102.893 113.588 103.404 113.333 103.404H108.99C108.479 103.404 108.224 102.893 108.224 102.637C108.224 102.382 108.479 101.871 108.99 101.871Z" fill="white"/>
<path d="M108.99 106.73H113.333C113.843 106.73 114.099 107.241 114.099 107.497C114.099 107.752 113.588 108.263 113.333 108.263H108.99C108.479 108.263 108.224 107.752 108.224 107.497C108.224 107.241 108.479 106.73 108.99 106.73Z" fill="white"/>
<path d="M108.99 111.578H113.333C113.843 111.578 114.099 112.089 114.099 112.344C114.099 112.6 113.588 113.111 113.333 113.111H108.99C108.479 113.111 108.224 112.6 108.224 112.344C108.224 112.089 108.479 111.578 108.99 111.578Z" fill="white"/>
<path d="M108.99 116.438H113.333C113.843 116.438 114.099 116.948 114.099 117.204C114.099 117.715 113.588 117.97 113.333 117.97H108.99C108.479 117.97 108.224 117.459 108.224 117.204C108.224 116.693 108.479 116.438 108.99 116.438Z" fill="white"/>
<path d="M104.133 92.1719H114.096H120.737V98.3026C120.737 99.3244 119.971 100.091 118.949 100.091H112.308H106.177H99.5352C98.5134 100.091 97.7471 99.3244 97.7471 98.3026V92.1719H104.133Z" fill="#132528"/>
<path d="M120.228 87.0662V90.1315V90.387C120.483 91.6642 121.505 92.4306 122.527 92.4306C122.527 92.1751 122.527 92.1751 122.527 91.9197V84.5117C121.249 84.5117 120.228 85.5335 120.228 86.5553C120.228 86.8107 120.228 86.8107 120.228 87.0662Z" fill="url(#paint0_linear_4037_145835)"/>
<path d="M94.9385 76.846V91.9173C94.9385 93.45 96.2157 94.7273 97.4929 94.7273H119.972C120.228 94.7273 120.483 94.7273 120.739 94.7273C121.76 94.4718 122.527 93.7055 122.527 92.6837C122.527 92.4282 122.527 92.4282 122.527 92.1728V77.1014V76.846C122.271 75.5687 121.25 74.5469 119.717 74.5469H97.2375C95.9603 74.2915 94.9385 75.3133 94.9385 76.846Z" fill="#053588"/>
<path d="M99.0242 84.5117C100.301 84.5117 101.579 85.5335 101.579 87.0662V90.1315C101.579 91.4088 100.557 92.686 99.0242 92.686C97.747 92.686 96.4697 91.6642 96.4697 90.1315V87.0662C96.4697 85.5335 97.747 84.5117 99.0242 84.5117Z" fill="white"/>
<path d="M117.672 78.3828H107.454V97.2859H117.672V78.3828Z" fill="white"/>
<path d="M106.18 86.5508H119.208C120.23 86.5508 120.996 87.3171 120.996 88.3389C120.996 89.3607 120.23 90.127 119.208 90.127H106.18C105.159 90.127 104.392 89.3607 104.392 88.3389C104.137 87.3171 105.159 86.5508 106.18 86.5508Z" fill="#132528"/>
<path d="M102.856 76.585L106.433 76.8405C106.944 76.8405 107.454 77.3513 107.454 77.8622V80.4167C107.454 81.183 107.965 81.6939 108.732 81.6939H116.395C117.161 81.6939 117.672 81.183 117.672 80.4167V77.8622C117.672 77.3513 118.183 76.8405 118.694 76.8405H121.504C121.249 75.5632 120.227 74.7969 119.205 74.7969H104.645C103.623 74.7969 102.856 75.5632 102.856 76.585Z" fill="#132528"/>
<path d="M94.9385 76.8435H122.782C122.782 75.3109 121.505 74.2891 119.972 74.2891H97.4929C95.9603 74.2891 94.9385 75.3109 94.9385 76.8435Z" fill="#132528"/>
<path d="M102.605 119.5H117.421C118.187 119.5 118.954 120.011 118.954 120.777C119.209 121.799 118.443 122.565 117.421 122.565C116.144 122.565 114.866 123.587 114.611 124.864L113.845 128.696C113.589 129.973 112.312 130.995 111.035 130.995C110.779 130.995 109.502 130.995 109.247 130.995C107.969 130.995 106.692 129.973 106.437 128.696L105.67 124.864C105.415 123.587 104.138 122.565 102.86 122.565C102.094 122.565 101.328 122.054 101.328 121.288C100.817 120.522 101.583 119.5 102.605 119.5Z" fill="#132528"/>
<path d="M127.381 93.9527C124.06 92.6755 122.527 88.8438 123.805 85.7784C125.082 82.4576 128.914 80.9249 131.979 82.2021C135.3 83.4794 136.832 87.3111 135.555 90.3764C134.278 93.4418 130.446 95.2299 127.381 93.9527Z" fill="#DAE7EA"/>
<path d="M122.782 91.9119V84.5039C124.059 84.5039 125.081 85.5257 125.081 86.5475V86.8029V89.8683V90.1237C124.826 91.401 123.804 92.1673 122.782 92.1673C122.782 92.1673 122.782 92.1673 122.782 91.9119Z" fill="white"/>
<path d="M99.0231 42.1024L99.534 38.5262L102.599 39.0371L102.088 35.4608L103.11 34.1836L114.35 35.2054L119.97 38.0153L119.459 41.0807C119.203 43.1243 117.415 44.4015 115.627 44.146L110.007 43.3797C108.986 43.3797 108.219 42.8688 107.708 42.1024C107.197 41.5916 106.687 41.3361 105.92 41.3361L105.154 41.5916C104.388 41.5916 103.877 42.3579 103.621 43.1242C103.366 44.6569 102.088 45.4233 100.556 44.9124C99.534 44.4015 98.7677 43.3797 99.0231 42.1024Z" fill="#132528"/>
<path d="M100.046 40.8324C98.7684 40.5769 97.4911 41.5987 97.2357 42.876V43.8978C96.9802 45.175 98.002 46.4522 99.2792 46.7077L101.578 46.9631L101.834 44.4086V43.6423V43.3868C102.345 42.3651 101.323 41.0878 100.046 40.8324Z" fill="white"/>
<path d="M107.713 49.7695C107.458 51.3022 108.735 52.8349 110.268 52.8349C111.801 53.0904 113.333 51.8131 113.333 50.2804L107.713 49.7695Z" fill="#132528"/>
<path d="M85.4854 87.8248C85.4854 86.803 86.2517 85.7812 87.5289 85.7812H98.2577C99.024 85.7812 99.535 86.2921 99.7904 87.0585V87.3139V87.8248V88.0803V89.102C99.7904 90.1238 98.5131 90.8902 97.4914 90.3793C96.9805 90.1238 96.4696 89.8684 95.7032 89.8684H87.5289C87.018 89.8684 86.5071 89.6129 86.2517 89.3575C85.7408 89.102 85.4854 88.5912 85.4854 87.8248Z" fill="#132528"/>
<path d="M87.0177 93.9527C83.6969 92.6755 82.1642 88.8438 83.4414 85.7784C84.7186 82.713 88.5503 80.9249 91.6157 82.2021C94.6811 83.4794 96.4692 87.3111 95.192 90.3764C93.9147 93.6973 90.3385 95.4854 87.0177 93.9527Z" fill="#DAE7EA"/>
<path d="M96.999 51.5L91.3591 50.5377C90.0818 50.2823 88.5492 50.5377 87.2719 51.0486L85.7393 51.5595L86.761 52.5813H93.9136L96.999 51.5Z" fill="#DAE7EA"/>
<path d="M97.7484 55.1312L95.7048 63.05L94.9385 56.9193L95.4494 54.1094L97.7484 55.1312Z" fill="#DAE7EA"/>
<path d="M119.972 39.8058H95.7041V34.9523C95.7041 29.3324 100.302 24.7344 105.922 24.7344H106.944C110.52 24.7344 113.33 26.5225 115.374 29.077C116.651 30.8651 117.162 32.9087 117.162 34.9523V35.2077C117.162 35.4631 117.417 35.974 117.673 36.2295C117.928 36.4849 118.439 36.7404 118.95 36.7404H119.972C120.738 36.7404 121.504 37.2513 121.76 38.0176C121.76 38.784 120.993 39.8058 119.972 39.8058Z" fill="#053588"/>
<mask id="path-64-inside-3_4037_145835" fill="white">
<path fill-rule="evenodd" clip-rule="evenodd" d="M85.2221 55.6471C86.3557 54.4115 88.0916 53.6919 89.8275 53.8497C92.8929 54.1051 94.9365 56.6596 94.4256 59.725C94.2859 61.2612 93.3827 62.5684 92.1333 63.3961L91.873 63.8154L77.8234 71.9898L77.7766 72.0186L85.9946 81.4392C87.5273 83.2274 87.5273 85.7819 85.9946 87.57C84.2065 89.6136 81.1412 89.6136 79.353 87.57L68.6242 75.564C68.3569 75.2967 68.1295 75.0008 67.943 74.6849L67.3495 74.0375C65.306 71.7384 65.5614 68.1622 68.3713 66.3741L71.1812 64.5859L71.194 64.6975L85.2221 55.6471Z"/>
</mask>
<path fill-rule="evenodd" clip-rule="evenodd" d="M85.2221 55.6471C86.3557 54.4115 88.0916 53.6919 89.8275 53.8497C92.8929 54.1051 94.9365 56.6596 94.4256 59.725C94.2859 61.2612 93.3827 62.5684 92.1333 63.3961L91.873 63.8154L77.8234 71.9898L77.7766 72.0186L85.9946 81.4392C87.5273 83.2274 87.5273 85.7819 85.9946 87.57C84.2065 89.6136 81.1412 89.6136 79.353 87.57L68.6242 75.564C68.3569 75.2967 68.1295 75.0008 67.943 74.6849L67.3495 74.0375C65.306 71.7384 65.5614 68.1622 68.3713 66.3741L71.1812 64.5859L71.194 64.6975L85.2221 55.6471Z" fill="white"/>
<path d="M89.8275 53.8497L89.737 54.8456L89.7445 54.8462L89.8275 53.8497ZM85.2221 55.6471L85.7642 56.4874L85.8721 56.4178L85.959 56.3232L85.2221 55.6471ZM94.4256 59.725L93.4392 59.5606L93.433 59.5973L93.4297 59.6344L94.4256 59.725ZM92.1333 63.3961L91.5811 62.5624L91.399 62.6831L91.2837 62.8687L92.1333 63.3961ZM91.873 63.8154L92.3759 64.6798L92.5912 64.5545L92.7226 64.3429L91.873 63.8154ZM77.8234 71.9898L77.3205 71.1254L77.3099 71.1316L77.2993 71.1381L77.8234 71.9898ZM77.7766 72.0186L77.2525 71.1669L76.2466 71.7859L77.023 72.6759L77.7766 72.0186ZM85.9946 81.4392L86.7539 80.7884L86.7482 80.7819L85.9946 81.4392ZM85.9946 87.57L86.7473 88.2285L86.7539 88.2208L85.9946 87.57ZM79.353 87.57L80.1057 86.9114L80.0987 86.9036L79.353 87.57ZM68.6242 75.564L69.3699 74.8976L69.3512 74.8767L69.3313 74.8569L68.6242 75.564ZM67.943 74.6849L68.8041 74.1764L68.7509 74.0863L68.6802 74.0092L67.943 74.6849ZM67.3495 74.0375L66.6021 74.7018L66.6072 74.7076L66.6124 74.7132L67.3495 74.0375ZM68.3713 66.3741L68.9082 67.2177L68.9082 67.2177L68.3713 66.3741ZM71.1812 64.5859L72.1747 64.4719L71.9925 62.8843L70.6444 63.7423L71.1812 64.5859ZM71.194 64.6975L70.2006 64.8115L70.384 66.4101L71.7362 65.5378L71.194 64.6975ZM89.918 52.8538C87.8584 52.6665 85.8206 53.5156 84.4852 54.9711L85.959 56.3232C86.8908 55.3074 88.3248 54.7172 89.737 54.8456L89.918 52.8538ZM95.412 59.8894C96.0209 56.2356 93.5466 53.1561 89.9106 52.8531L89.7445 54.8462C92.2392 55.0541 93.852 57.0835 93.4392 59.5606L95.412 59.8894ZM92.6856 64.2297C94.1465 63.2619 95.2501 61.7001 95.4215 59.8155L93.4297 59.6344C93.3217 60.8223 92.6188 61.8749 91.5811 62.5624L92.6856 64.2297ZM91.2837 62.8687L91.0234 63.288L92.7226 64.3429L92.9829 63.9235L91.2837 62.8687ZM91.3701 62.9511L77.3205 71.1254L78.3263 72.8541L92.3759 64.6798L91.3701 62.9511ZM77.2993 71.1381L77.2525 71.1669L78.3007 72.8702L78.3475 72.8414L77.2993 71.1381ZM86.7482 80.7819L78.5302 71.3612L77.023 72.6759L85.2411 82.0966L86.7482 80.7819ZM86.7539 88.2208C88.6076 86.0582 88.6076 82.9511 86.7539 80.7885L85.2354 82.09C86.4471 83.5037 86.4471 85.5056 85.2354 86.9192L86.7539 88.2208ZM78.6005 88.2285C80.787 90.7274 84.5607 90.7274 86.7472 88.2285L85.2421 86.9115C83.8523 88.4997 81.4953 88.4997 80.1056 86.9115L78.6005 88.2285ZM67.8786 76.2303L78.6074 88.2363L80.0987 86.9036L69.3699 74.8976L67.8786 76.2303ZM67.0819 75.1934C67.3104 75.5803 67.5892 75.9432 67.9171 76.2711L69.3313 74.8569C69.1246 74.6501 68.9487 74.4212 68.8041 74.1764L67.0819 75.1934ZM66.6124 74.7132L67.2059 75.3606L68.6802 74.0092L68.0867 73.3617L66.6124 74.7132ZM67.8345 65.5304C64.4612 67.6771 64.1847 71.9822 66.6021 74.7018L68.0969 73.3731C66.4272 71.4946 66.6617 68.6473 68.9082 67.2177L67.8345 65.5304ZM70.6444 63.7423L67.8345 65.5304L68.9082 67.2177L71.7181 65.4296L70.6444 63.7423ZM72.1875 64.5835L72.1747 64.4719L70.1878 64.6999L70.2006 64.8115L72.1875 64.5835ZM71.7362 65.5378L85.7642 56.4874L84.6799 54.8068L70.6519 63.8572L71.7362 65.5378Z" fill="#132528" mask="url(#path-64-inside-3_4037_145835)"/>
<path d="M89.0625 141.221C89.0625 141.987 88.5516 142.498 87.7853 142.498H69.1377V136.623C69.1377 135.601 69.904 134.834 70.9258 134.579L73.7357 134.068C75.2684 133.813 76.8011 132.791 77.5674 131.258C78.0783 130.492 78.8447 129.725 79.611 129.47C81.3991 129.215 82.9318 130.492 82.9318 132.28V135.856C82.9318 136.623 82.6764 137.133 82.1655 137.644V140.199H87.7853C88.5516 139.943 89.0625 140.454 89.0625 141.221Z" fill="#132528"/>
<path d="M83.4428 135.602C80.8883 135.602 78.8447 137.645 78.8447 140.2H88.0408C87.7854 137.39 85.7418 135.602 83.4428 135.602Z" fill="#9BA5BE"/>
<path d="M82.6773 86.0352H84.9764C85.9982 86.0352 87.02 86.8015 87.02 88.0787C87.02 89.1005 86.2536 90.1223 84.9764 90.1223H82.6773C81.6555 90.1223 80.6338 89.356 80.6338 88.0787C80.6338 86.8015 81.4001 86.0352 82.6773 86.0352Z" fill="#132528"/>
<path d="M135.297 126.909L111.54 142.491V140.703L134.53 125.887C134.786 125.632 135.297 125.887 135.297 126.143C135.552 126.398 135.552 126.653 135.297 126.909Z" fill="#6E768C"/>
<path d="M108.731 142.49L58.9191 101.108C58.6637 100.852 58.6637 100.597 58.9191 100.086C59.1746 99.8307 59.43 99.8307 59.9409 100.086L108.987 140.702V142.49H108.731Z" fill="#6E768C"/>
<path d="M143.215 130.236C142.96 130.236 142.704 130.236 142.704 129.981C142.449 129.726 142.704 129.215 142.96 129.215L152.922 122.828C153.178 122.573 153.689 122.828 153.689 123.084C153.944 123.339 153.689 123.85 153.433 123.85L143.471 130.236H143.215Z" fill="#6E768C"/>
<path d="M158.289 147.098V148.375H116.396V143.777H106.944L104.39 145.565H93.6611V144.288H103.624L106.178 142.5H117.673V147.098H158.289Z" fill="#6E768C"/>
<path d="M147.958 58.093H210.181C205.456 52.8094 198.619 49.2041 192.216 49.2041C188.984 49.2041 186.249 50.1365 184.26 51.7526C178.665 44.1069 169.341 38.6367 160.701 38.6367C149.947 38.6367 144.228 47.3392 147.958 58.093Z" fill="white"/>
<defs>
<linearGradient id="paint0_linear_4037_145835" x1="122.774" y1="88.4742" x2="120.323" y2="88.4742" gradientUnits="userSpaceOnUse">
<stop stop-color="#E7E2EA"/>
<stop offset="1" stop-color="#E7E2EA"/>
</linearGradient>
</defs>
</svg>
